<?xml version="1.0" standalone="no"?><!DOCTYPE svg PUBLIC "-//W3C//DTD SVG 1.1//EN" "http://www.w3.org/Graphics/SVG/1.1/DTD/svg11.dtd"><svg t="1522689312204" class="icon" style="" viewBox="0 0 1024 1024" version="1.1" xmlns="http://www.w3.org/2000/svg" p-id="44155" xmlns:xlink="http://www.w3.org/1999/xlink" width="200" height="200"><defs><style type="text/css"></style></defs><path d="M275.598015 21.182599c-101.951533-2.018102-225.907854 74.744526-241.94803 450.335766-11.46581 268.213255 11.854482 455.61273 162.853373 498.35165 14.889109 4.215591 29.76327 6.293489 44.248759 6.293489 24.576 0 48.015883-5.994511 68.510832-17.819095 40.257401-23.200701 68.914453-67.344818 85.178861-131.221489 3.931562-15.397372 8.565723-33.156672 13.678248-52.694891 41.513109-158.802219 111.010569-424.563854 83.444789-527.890686-30.017401-112.565255-71.425869-222.678891-215.966832-225.354744z m158.174365 523.480759c-17.759299 81.336993-38.926949 162.345109-54.578453 222.185576a7961.39819 7961.39819 0 0 0-13.723095 52.889227c-14.20146 55.759416-38.134657 93.669839-71.141839 112.699795-34.502073 19.882044-70.99235 13.962277-89.693431 8.655416-111.862657-31.646832-152.179854-157.681051-141.924905-447.1367 1.240759 0.13454 2.481518 0.284029 3.782073 0.284029 3.901664 0 8.042511-0.657752 12.302949-2.302132 18.656234-7.190423 29.927708-29.389547 34.457226-67.897927 7.145577-60.737401 104.373255-126.70692 146.91784-150.371036 178.594569 36.445431 174.558365 248.405956 173.601635 270.993752z m22.004788-113.746219c-0.538161 3.288759-5.217168 3.602686-6.069256 0.388671-19.672759-73.892438-66.49273-160.057927-176.875445-185.515912V198.072993a14.948905 14.948905 0 0 0-29.89781 0v51.005664c-32.229839 18.446949-149.877723 90.93419-159.355329 171.47889-4.469723 38.015066-14.350949 43.008-15.457167 43.456468-1.166015 0.478365-2.660905 0.224234-4.155796-0.239183 9.163679-190.837723 53.158307-412.724321 208.028963-412.724321 1.001577 0 2.033051 0 3.034628 0.029898 124.031066 2.302131 158.368701 93.370861 187.653606 203.170569 10.060613 37.731036 5.097577 102.788672-6.906394 176.666161zM849.187504 81.546277c-139.66762-37.357314-209.882628 57.030073-269.842686 156.918657-55.041869 91.681635-61.694131 366.307971-65.670541 530.387154a10074.470774 10074.470774 0 0 1-1.420146 54.428963c-2.018102 65.879825 13.319474 116.242686 45.60911 149.653489 16.428847 17.026803 37.312467 29.269956 60.916788 36.056759a162.19562 162.19562 0 0 0 44.263708 6.173898c156.918657 0.657752 231.110073-173.018628 294.224351-433.966715 88.377927-365.396088-9.537401-473.416876-108.080584-499.652205zM663.178277 985.252438c-19.433577-0.074745-56.148088-4.469723-83.803562-33.096876-26.474511-27.401343-38.986745-70.45419-37.222773-127.962628 0.493314-15.935533 0.941781-34.352584 1.420146-54.623299 1.509839-61.84362 3.542891-145.557489 8.954394-228.628555 5.32181-21.989839 60.019854-226.789839 241.723795-212.468788 34.352584 34.517022 109.560526 124.778511 99.649402 185.127241-6.293489 38.254248-1.584584 62.695708 14.350949 74.774423 3.647533 2.750599 7.444555 4.529518 11.19673 5.60584 1.255708 0.358774 2.481518 0.553109 3.707328 0.762394-70.140263 281.024467-143.733723 391.003562-259.976409 390.510248z m267.107037-419.854949c-1.554686 0.044847-3.064526-0.119591-4.051153-0.911883-0.941781-0.732496-9.059036-8.266745-2.855241-46.027679 13.155036-80.021489-79.886949-182.212204-105.763504-208.836204l14.096818-49.01746a14.963854 14.963854 0 0 0-28.746745-8.251796l-13.184934 45.848292c-113.118365-6.024409-181.943124 63.846774-221.258745 129.427621-1.719124 2.855241-6.129051 1.255708-5.72543-2.048 8.87965-74.311007 22.079533-138.217577 42.170861-171.703125 58.480117-97.436964 116.646307-175.470248 236.491679-143.404846l2.929985 0.807241c148.846248 42.768818 129.801343 268.168409 85.896409 454.117839z" p-id="44156" fill="#797979"></path></svg>