<?xml version="1.0" standalone="no"?><!DOCTYPE svg PUBLIC "-//W3C//DTD SVG 1.1//EN" "http://www.w3.org/Graphics/SVG/1.1/DTD/svg11.dtd"><svg t="1522688723136" class="icon" style="" viewBox="0 0 1024 1024" version="1.1" xmlns="http://www.w3.org/2000/svg" p-id="1088" xmlns:xlink="http://www.w3.org/1999/xlink" width="200" height="200"><defs><style type="text/css"></style></defs><path d="M550.4 402.752V314.048a51.2 51.2 0 1 1 0 88.704zM473.6 314.048v88.704a51.2 51.2 0 1 1 0-88.704zM198.4 166.4h627.2a32 32 0 0 1 32 32v627.2a32 32 0 0 1-32 32H198.4a32 32 0 0 1-32-32V198.4a32 32 0 0 1 32-32z m32 64v563.2h563.2V230.4H230.4z m284.8 268.8a28.8 28.8 0 0 1 28.8 28.8v51.2a28.8 28.8 0 1 1-57.6 0v-51.2a28.8 28.8 0 0 1 28.8-28.8z m97.8176 133.2288a28.8 28.8 0 0 1 13.9264 38.272l-21.632 46.4a28.8 28.8 0 0 1-52.2048-24.3392l21.632-46.4a28.8 28.8 0 0 1 38.272-13.9328z m-205.984-2.5216a28.8 28.8 0 0 1 38.272 13.9264l21.6384 46.4a28.8 28.8 0 1 1-52.1984 24.3456l-21.6384-46.4a28.8 28.8 0 0 1 13.9264-38.272z" fill="#797979" p-id="1089"></path></svg>