<?xml version="1.0" standalone="no"?><!DOCTYPE svg PUBLIC "-//W3C//DTD SVG 1.1//EN" "http://www.w3.org/Graphics/SVG/1.1/DTD/svg11.dtd"><svg t="1522688123981" class="icon" style="" viewBox="0 0 1024 1024" version="1.1" xmlns="http://www.w3.org/2000/svg" p-id="2166" xmlns:xlink="http://www.w3.org/1999/xlink" width="200" height="200"><defs><style type="text/css"></style></defs><path d="M512 847.53066667c-12.51555555 0-22.64177778 10.12622222-22.64177778 22.64177778V940.94222223c0 12.51555555 10.12622222 22.64177778 22.64177778 22.64177777s22.64177778-10.12622222 22.64177778-22.64177777v-70.656c0-12.62933333-10.12622222-22.75555555-22.64177778-22.75555556zM626.91555555 834.33244445c-6.25777778-10.80888889-20.13866667-14.56355555-30.94755555-8.30577778-10.80888889 6.25777778-14.56355555 20.13866667-8.30577778 30.94755556l34.92977778 60.416c4.20977778 7.28177778 11.83288889 11.37777778 19.68355555 11.37777777 3.86844445 0 7.73688889-1.024 11.264-3.072 10.80888889-6.25777778 14.56355555-20.13866667 8.30577778-30.94755555L626.91555555 834.33244445zM748.77155555 791.0968889l-58.02666666-33.56444445c-10.80888889-6.25777778-24.68977778-2.50311111-30.94755556 8.30577778s-2.50311111 24.68977778 8.30577778 30.94755555l58.02666667 33.56444445c3.52711111 2.048 7.50933333 3.072 11.264 3.072 7.85066667 0 15.47377778-4.096 19.68355555-11.37777778 6.25777778-10.80888889 2.50311111-24.68977778-8.30577778-30.94755555zM364.20266667 765.83822223c-6.25777778-10.80888889-20.13866667-14.56355555-30.94755556-8.30577778l-58.02666666 33.56444445c-10.80888889 6.25777778-14.56355555 20.13866667-8.30577778 30.94755555 4.20977778 7.28177778 11.83288889 11.264 19.68355555 11.264 3.86844445 0 7.73688889-1.024 11.264-3.072l58.02666667-33.56444445c10.92266667-6.144 14.56355555-20.02488889 8.30577778-30.83377777zM428.032 826.02666667c-10.80888889-6.25777778-24.68977778-2.50311111-30.94755555 8.30577778l-34.92977778 60.416c-6.25777778 10.80888889-2.50311111 24.68977778 8.30577778 30.94755555 3.52711111 2.048 7.50933333 3.072 11.264 3.072 7.85066667 0 15.47377778-4.096 19.68355555-11.37777777l34.92977778-60.416c6.25777778-10.80888889 2.50311111-24.68977778-8.30577778-30.94755556zM774.25777778 657.408v-1.024c-0.22755555-69.632-27.53422222-135.05422222-76.8-184.32-18.20444445-18.20444445-38.45688889-33.33688889-60.416-45.28355555l-15.24622223-97.73511112c-1.70666667-11.03644445-11.264-19.11466667-22.41422222-19.11466666h-64.73955555v-92.38755556h22.64177777c11.49155555 0 21.16266667-8.64711111 22.528-20.02488888l13.76711112-119.808c0.68266667-6.37155555-1.25155555-12.85688889-5.57511112-17.63555556-4.32355555-4.77866667-10.46755555-7.62311111-16.95288888-7.62311111H452.94933333c-6.48533333 0-12.62933333 2.73066667-16.95288888 7.62311111-4.32355555 4.77866667-6.37155555 11.264-5.57511112 17.63555556l13.76711112 119.808c1.36533333 11.37777778 11.03644445 20.02488889 22.528 20.02488888h22.64177777v92.38755556h-64.73955555c-11.15022222 0-20.70755555 8.192-22.41422222 19.11466666L386.95822222 426.66666667c-21.95911111 11.94666667-42.32533333 27.07911111-60.416 45.28355556-49.49333333 49.49333333-76.8 115.37066667-76.8 185.45777777 0 27.76177778 28.672 47.90044445 87.60888889 61.78133333 15.81511111 3.75466667 33.45066667 6.82666667 52.224 9.44355557 10.46755555 20.13866667 25.6 37.31911111 44.48711111 50.40355555 23.32444445 16.04266667 50.63111111 24.576 78.96177778 24.576 28.33066667 0 55.63733333-8.53333333 78.96177778-24.576 19.00088889-13.08444445 34.24711111-30.49244445 44.71466667-50.74488889 17.86311111-2.50311111 34.58844445-5.46133333 49.83466666-9.10222223 58.02666667-13.65333333 86.69866667-33.45066667 87.60888889-60.52977777 0.11377778-0.45511111 0.11377778-0.91022222 0.11377778-1.25155556z m-295.936-559.78666667h67.35644444l-8.53333333 74.52444445H486.96888889l-8.64711111-74.52444445z m-34.36088889 257.47911112h135.96444444l7.96444445 51.2c-24.34844445-7.28177778-49.83466667-11.15022222-76.00355556-11.15022222-26.05511111 0-51.65511111 3.75466667-76.00355555 11.15022222l8.07822222-51.2z m68.03911111 85.33333333c102.05866667 0 187.84711111 70.76977778 210.83022222 165.888-10.46755555-3.86844445-22.528-7.50933333-36.29511111-10.69511111-20.13866667-4.66488889-43.008-8.53333333-67.69777778-11.37777777l-2.048-0.34133334c-25.14488889-2.73066667-51.65511111-4.43733333-79.07555555-5.12-8.53333333-0.22755555-17.06666667-0.34133333-25.82755556-0.34133333-65.64977778 0-127.65866667 6.03022222-174.53511111 17.06666667-13.76711111 3.18577778-25.82755555 6.82666667-36.29511111 10.6951111 23.09688889-95.00444445 108.88533333-165.77422222 210.944-165.77422222zM298.66666667 657.408c7.85066667-5.12 26.05511111-13.19822222 61.66755555-20.48 5.46133333-1.13777778 11.03644445-2.16177778 16.83911111-3.072-2.27555555 9.89866667-3.41333333 20.13866667-3.41333333 30.37866667 0 5.46133333 0.34133333 10.80888889 0.91022222 16.15644444-5.00622222-0.79644445-9.78488889-1.70666667-14.44977777-2.73066666-35.49866667-7.05422222-53.70311111-15.24622222-61.55377778-20.25244445zM513.13777778 758.21511111c-38.68444445 0-72.93155555-23.21066667-87.26755556-59.16444444-4.43733333-10.92266667-6.59911111-22.64177778-6.59911111-34.70222222 0-12.62933333 2.50311111-25.03111111 7.39555556-36.52266667 27.42044445-2.61688889 56.43377778-3.86844445 86.47111111-3.86844445s59.05066667 1.25155555 86.47111111 3.86844445c4.89244445 11.49155555 7.39555555 23.89333333 7.39555556 36.52266667 0 12.06044445-2.27555555 23.77955555-6.7128889 34.816-14.22222222 35.84-48.46933333 59.05066667-87.15377777 59.05066666z m150.41422222-80.44088888c-3.98222222 0.79644445-7.96444445 1.59288889-12.06044445 2.27555555 0.56888889-5.23377778 0.91022222-10.46755555 0.91022223-15.81511111 0-10.12622222-1.13777778-20.25244445-3.29955556-30.03733334 5.00622222 0.79644445 9.78488889 1.70666667 14.44977778 2.73066667 35.72622222 7.168 53.93066667 15.36 61.66755555 20.48-7.73688889 5.00622222-25.94133333 13.19822222-61.66755555 20.36622223z" fill="#797979" p-id="2167"></path></svg>