<?xml version="1.0" standalone="no"?><!DOCTYPE svg PUBLIC "-//W3C//DTD SVG 1.1//EN" "http://www.w3.org/Graphics/SVG/1.1/DTD/svg11.dtd"><svg t="1522688114243" class="icon" style="" viewBox="0 0 1024 1024" version="1.1" xmlns="http://www.w3.org/2000/svg" p-id="1989" xmlns:xlink="http://www.w3.org/1999/xlink" width="200" height="200"><defs><style type="text/css"></style></defs><path d="M749.4 102.7c-10.2 0-18.5 8.3-18.5 18.5v202.2H702V102.1c0-10.2-8.3-18.5-18.5-18.5h-343c-10.2 0-18.5 8.3-18.5 18.5v221.2h-28.9V121.2c0-10.2-8.3-18.5-18.5-18.5s-18.5 8.3-18.5 18.5v788.5c0 10.2 8.3 18.5 18.5 18.5h474.9c10.2 0 18.5-8.3 18.5-18.5V121.2c0-10.3-8.3-18.5-18.6-18.5zM665 462.2c-2.1 0.9-4.1 2.2-5.8 3.9l-206 206c-7.2 7.2-7.2 19 0 26.2 3.6 3.6 8.4 5.4 13.1 5.4s9.5-1.8 13.1-5.4L665 512.7v240.8H359v-43.4l306-308.5v60.6z m0-341.6v229.2L359 658.4V431l215-215c7.2-7.2 7.2-19 0-26.2-7.2-7.2-19-7.2-26.2 0L359 378.7v-258h306zM322 360.4V772c0 10.2 8.3 18.5 18.5 18.5h343c10.2 0 18.5-8.3 18.5-18.5V360.4h28.9v467.3H293.1V360.4H322z m-28.9 504.3H731v26.5H293.1v-26.5z" fill="#797979" p-id="1990"></path></svg>