<?xml version="1.0" standalone="no"?><!DOCTYPE svg PUBLIC "-//W3C//DTD SVG 1.1//EN" "http://www.w3.org/Graphics/SVG/1.1/DTD/svg11.dtd"><svg t="1522690624166" class="icon" style="" viewBox="0 0 1024 1024" version="1.1" xmlns="http://www.w3.org/2000/svg" p-id="7346" xmlns:xlink="http://www.w3.org/1999/xlink" width="200" height="200"><defs><style type="text/css"></style></defs><path d="M460.8 6.4h-64V320h64V6.4z m192 121.6h-64v192h64V128zM275.2 128h-64v192h64V128z m608 358.4c-25.6 0-44.8 6.4-64 19.2V390.4H51.2v211.2c0 160 96 294.4 236.8 352H19.2v64h832v-64H576c102.4-44.8 185.6-134.4 217.6-243.2 19.2 19.2 51.2 32 83.2 32 70.4 0 128-57.6 128-128s-51.2-128-121.6-128z m-128 115.2c0 179.2-140.8 320-320 320s-320-140.8-320-320V454.4h288v102.4H320v224h224V556.8H467.2V454.4h288v147.2z m-275.2 19.2v96H384V620.8h96z m403.2 57.6c-38.4 0-64-25.6-64-64s25.6-64 64-64 64 25.6 64 64-32 64-64 64z" p-id="7347" fill="#797979"></path></svg>