<?xml version="1.0" standalone="no"?><!DOCTYPE svg PUBLIC "-//W3C//DTD SVG 1.1//EN" "http://www.w3.org/Graphics/SVG/1.1/DTD/svg11.dtd"><svg t="1522690461924" class="icon" style="" viewBox="0 0 1024 1024" version="1.1" xmlns="http://www.w3.org/2000/svg" p-id="6005" xmlns:xlink="http://www.w3.org/1999/xlink" width="200" height="200"><defs><style type="text/css"></style></defs><path d="M837.329041 523.645728c-5.210888-17.183811-15.353941-29.580876-30.126201-36.864-20.819314-10.24-45.989112-7.343716-61.936852-3.756687l5.392663-40.366201c0.751337-3.187124 1.090651-8.26471 1.296663-11.536662l0.29084-3.95058h-0.060592c0.012118 0 0.169657 0.751337 0.169657 0.206011 0-42.402083-45.964876-77.860355-116.214911-98.388828l8.567668-79.823527 16.771787-13.415005c57.19858-54.677964 65.742012-129.484497 48.824805-179.472663-8.919101-26.417988-24.43058-43.262485-41.444734-45.152947-27.544994-3.078059-42.971645 11.306414-50.351716 25.351574-5.85316-2.593325-10.009751-4.229302-10.276355-4.338367l-0.36355 0.920994c-0.424142-0.957349-0.811929-1.97529-1.320899-2.799337-3.696095-6.022817-9.80374-9.403834-16.274935-9.052402-29.799006 1.236071-47.261538 56.798675-53.526722 81.277727-6.034935 17.002036-18.201751 56.992568-5.974343 74.358154 4.059645 5.78045 8.616142 8.955456 15.887148 8.955456 1.139124 0 1.696568-0.169657 1.696568-0.315077v0.024237l25.630295 5.429017c0.969467 15.850793 6.689325 39.566391 12.106225 52.266415l-11.03981 73.824946a532.213396 532.213396 0 0 0-73.352332-4.980639c-6.022817 0-11.791148 0.21813-17.692781 0.412024L456.037491 105.562888l5.889515-1.587503a21.837254 21.837254 0 0 0 15.620544-25.484876l-6.204591-29.835361a21.594888 21.594888 0 0 0-9.621965-13.923976 21.691834 21.691834 0 0 0-16.711195-2.835693l-183.435361 43.141302a21.849373 21.849373 0 0 0-13.693728 32.440805l18.698604 31.168378 46.728331 212.858699c-38.560568 20.540592-61.852024 45.770982-61.852024 75.885065 0 0.533207 0.14542-0.21813 0.169657-0.21813h-0.060592l0.290841 3.974816c0.206012 3.247716 0.533207 7.380071 1.272426 10.555077l66.505467 501.929657c1.151243 47.32213 94.317065 73.073609 182.017515 73.073609 87.70045 0 180.878391-25.400047 182.029633-72.722177l5.950107-44.498556c18.747077-1.490556 36.876118-12.009278 54.023574-31.701586 68.468639-78.587456 109.101444-293.191195 93.674792-344.13671z m-102.4 36.706461c10.724734-2.581207 24.757775-4.265657 32.149965 0.060592 1.987408 1.175479 4.38684 3.235598 5.247243 8.810036 4.38684 28.635645-20.092213 174.492024-62.360995 224.152994a63.936379 63.936379 0 0 1-7.101349 7.077112l32.065136-240.100734z m-6.858982-131.665798l-1.260308 9.464426c-7.258888 27.581349-47.370604 55.041515-109.780071 70.710532l16.529421-154.799716c58.907266 17.92303 94.074698 46.837396 94.510958 74.624758zM611.443124 59.90097c2.678154 1.211834 5.574438 2.55697 8.555551 4.02329 13.705846 6.762036 18.989444 10.882272 20.879905 12.651551-0.872521 24.769893-3.756686 67.281041-13.245349 93.202177a9.028166 9.028166 0 0 1-10.45813 5.70774l-38.827172-8.797917c2.205538-3.041704 4.38684-6.337893 6.495432-10.09458 12.990864-23.242982 25.460639-65.851077 26.599763-96.692261z m-51.684733 50.218415l0.339313-1.10277c7.367953-29.03555 19.304521-53.587314 27.06026-61.173396 2.108592 17.680663-6.834746 68.601941-24.491171 98.679669-5.550201 9.428071-10.106698 13.378651-12.72426 14.590485-1.696568-7.925396 2.569089-30.695763 9.815858-50.993988z m50.266887 125.267313c-3.986935-7.040757-7.864805-25.763598-9.573491-38.827171l11.354888 2.581207a33.386036 33.386036 0 0 0 38.584804-21.013207c11.015574-30.101964 13.996686-77.763408 14.808616-103.490651 0.29084-9.440189-6.919574-17.511006-25.024379-27.508639 3.441609-6.28942 10.74897-13.633136 26.005964-11.85174 5.877396 0.654391 15.038864 10.785325 21.158628 28.878012 14.445065 42.705041 6.871101 106.992852-41.880994 153.660592L621.671006 237.107503l-9.258414 86.694627-2.569089 24.018556-17.765491 166.421207c-7.489136 1.369373-15.269112 2.55697-23.255101 3.58703l26.866367-173.062059 3.696095-23.824663 12.712142-81.907881-2.072237-3.647622z m-108.119858 100.897326c24.903195 0 48.267361 1.648095 69.862249 4.580733l-27.87219 179.521136a540.59929 540.59929 0 0 1-31.434982 1.478438l-25.08497-185.253112c4.823101-0.133302 9.585609-0.327195 14.529893-0.327195zM448.136331 56.047337l5.235125 25.133444-165.948592 45.092355-17.038391-28.405396L448.136331 56.047337z m-154.3271 93.602083L432.49155 111.973491l27.326864 201.794651 3.259835 24.018556 24.915313 184.004923c-44.522793-1.114888-83.931645-7.355834-116.214911-17.014154l-30.744237-140.06381-5.210887-23.727716-42.014296-191.336521z m24.86684 226.261586l26.18774 119.317207c-38.003124-15.572071-62.167101-36.100544-67.838486-56.738083l-1.284544-9.731029c0.242367-18.28658 15.705373-37.021538 42.93529-52.848095zM659.552947 941.595266l-0.109065 1.61174c0 20.661775-60.034272 49.491314-157.792947 49.491314s-157.792947-28.829538-157.792947-49.491314l-60.385704-456.013255c42.523266 35.555219 123.449562 59.137515 218.433136 59.137515 94.922982 0 175.788686-23.558059 218.336189-59.076923L659.552947 941.595266z m65.814722-89.699976c-10.882272 12.494012-21.752426 19.958911-32.40445 22.564355l5.913751-44.256189c10.349065-3.199243 20.237633-10.215763 29.520284-21.122273 48.049231-56.423006 72.940308-210.531976 67.874841-243.530224-1.769278-11.597254-7.646675-20.601183-16.965681-26.054438-12.178935-7.137704-28.114556-6.737799-40.972118-4.604971l3.465846-25.933254c12.045633-3.80516 37.421444-8.919101 54.690083-0.43626 8.652497 4.265657 14.40871 11.500308 17.644308 22.152331 11.99716 39.626982-24.091266 246.971834-88.766864 321.220923z" p-id="6006" fill="#797979"></path></svg>