<?xml version="1.0" standalone="no"?><!DOCTYPE svg PUBLIC "-//W3C//DTD SVG 1.1//EN" "http://www.w3.org/Graphics/SVG/1.1/DTD/svg11.dtd"><svg t="1522688133905" class="icon" style="" viewBox="0 0 1024 1024" version="1.1" xmlns="http://www.w3.org/2000/svg" p-id="2343" xmlns:xlink="http://www.w3.org/1999/xlink" width="200" height="200"><defs><style type="text/css"></style></defs><path d="M763.6 624.3c-1.1-6.5-2.3-13.1-3.4-19.6-5-27.5-31.4-45.8-59.1-42-16.3 2.3-32.6 4.2-48.9 5.9v-55.3c6.6-4.7 13-9.8 19.1-15.5 33.3-30.9 54.2-73.2 59-119.1l11.2-107.3c5.7-54-11.7-107.9-47.6-147.7-16.8-18.6-36.6-33.3-59-43.6-23.3-10.7-48.2-16.2-74-16.2h-113c-25.8 0-50.7 5.4-74 16.2-22.4 10.3-42.2 25-59 43.6-35.9 39.8-53.2 93.7-47.6 147.7l11.2 107.3c4.8 45.9 25.8 88.2 59 119.1 6 5.6 12.4 10.8 19.1 15.5v55.3c-16.3-1.7-32.7-3.7-48.9-5.9-27.6-3.8-54.1 14.5-59.1 42-1.1 6.5-2.3 13.1-3.4 19.6-5 27.5 15.5 54.2 45.9 58.4 7.9 1.1 15.8 2.1 23.8 3.1L279.6 939c-0.7 5.1 0.8 10.3 4.2 14.3s8.3 6.2 13.5 6.2h44.5c8.6 0 16-6.1 17.6-14.5l49-250.5c63.9 3.9 127.9 3.9 191.7 0L649.2 945c1.7 8.4 9 14.5 17.6 14.5h44.5c9.9 0 17.9-8 17.9-17.9 0-1.2-0.1-2.3-0.3-3.4l-35.2-252.3c7.9-1 15.8-2 23.8-3.1 30.5-4.3 51.1-31.1 46.1-58.5z m-304.4-78.4h90.5c2.2 0 4.5-0.1 6.7-0.1v29.4c-34.6 1.3-69.2 1.3-103.8 0v-29.4c2.1 0.1 4.3 0.1 6.6 0.1z m157 25.9c-8 0.6-16 1.2-24 1.7v-32.8c8.2-2 16.2-4.6 24-7.8v38.9zM314.3 374.9l-11.2-107.3c-4.6-43.9 9.4-87.7 38.5-119.9 27.8-30.9 65.6-47.9 106.3-47.9h113c40.7 0 78.5 17 106.3 47.9 29.1 32.3 43.1 76 38.5 119.9l-11.2 107.3C686.4 452 624.2 510 549.7 510h-90.5c-74.5 0-136.8-58-144.9-135.1z m78.3 158c7.8 3.2 15.8 5.8 24 7.8v32.8c-8-0.5-16-1-24-1.7v-38.9z m-65.5 390.6H318l32.6-233.8c7.3 0.7 14.6 1.4 21.9 2l-45.4 231.8z m363.7 0h-9l-45.4-231.8c7.3-0.6 14.6-1.3 21.8-2l32.6 233.8zM296.1 647.1c-8.6-1.2-14.6-8.8-13.4-16.8 1-6.6 1.9-13.1 2.9-19.7 1.2-8 8.9-13.6 17.2-12.4 133.7 18.5 269.4 18.5 403.2 0 8.3-1.1 16 4.4 17.2 12.4 1 6.6 1.9 13.1 2.9 19.7 1.2 8-4.8 15.6-13.4 16.8-138.2 19.1-278.4 19.1-416.6 0z" fill="#797979" p-id="2344"></path></svg>