<?xml version="1.0" standalone="yes"?>
<svg xmlns="http://www.w3.org/2000/svg" width="273" height="104">
<path style="fill:#ffffff; stroke:none;" d="M0 0L0 104C6.00802 95.9294 10.0876 85.8947 14.7809 77C23.5931 60.2991 32.304 43.449 41.5756 27C44.53 21.7585 47.3623 16.357 50.0995 11C52.0183 7.24478 52.7631 3.84624 56 1C50.7835 -1.18893 43.6191 0 38 0L0 0z"/>
<path style="fill:#555555; stroke:none;" d="M56 0L57 1L56 0z"/>
<path style="fill:#000000; stroke:none;" d="M1 104L154 104L196 104C201.302 104 209.135 105.416 213.945 102.821C217.012 101.167 218.413 97.9055 220.024 95C223.505 88.7229 226.87 82.3477 230.219 76C239.198 58.9835 248.433 42.0962 257.258 25C261.459 16.8636 267.41 8.80434 270 0L116 0L74 0C68.7812 0 60.8084 -1.4605 56.1088 1.17901C52.8418 3.0139 51.8955 6.86013 50.3349 10C47.307 16.0918 43.9527 21.9888 40.7809 28C31.8021 45.0165 22.5666 61.9038 13.7415 79C9.54144 87.1365 3.5898 95.1956 1 104z"/>
<path style="fill:#ffffff; stroke:none;" d="M270 0C260.209 23.5181 245.722 45.2706 234.248 68C230.327 75.7656 226.078 83.3922 221.861 91C219.463 95.3263 217.804 99.7393 214 103C219.462 105.292 227.113 104 233 104L273 104L273 0L270 0z"/>
<path style="fill:#c1c1c1; stroke:none;" d="M54 1L55 2L54 1z"/>
<path style="fill:#cecece; stroke:none;" d="M53 2L54 3L53 2z"/>
<path style="fill:#b3b3b3; stroke:none;" d="M52 4L53 5L52 4z"/>
<path style="fill:#454545; stroke:none;" d="M266 7L267 8L266 7z"/>
<path style="fill:#434343; stroke:none;" d="M51 8L52 9L51 8z"/>
<path style="fill:#676767; stroke:none;" d="M265 9L266 10L265 9z"/>
<path style="fill:#898989; stroke:none;" d="M264 11L265 12L264 11z"/>
<path style="fill:#d2d2d2; stroke:none;" d="M48 13L49 14L48 13z"/>
<path style="fill:#a9a9a9; stroke:none;" d="M263 13L264 14L263 13z"/>
<path style="fill:#bebebe; stroke:none;" d="M47 15L48 16L47 15z"/>
<path style="fill:#c4c4c4; stroke:none;" d="M262 15L263 16L262 15z"/>
<path style="fill:#9e9e9e; stroke:none;" d="M46 17L47 18L46 17z"/>
<path style="fill:#808080; stroke:none;" d="M45 19L46 20L45 19z"/>
<path style="fill:#2f2f2f; stroke:none;" d="M259 20L260 21L259 20z"/>
<path style="fill:#5b5b5b; stroke:none;" d="M44 21L45 22L44 21z"/>
<path style="fill:#474747; stroke:none;" d="M258 22L259 23L258 22z"/>
<path style="fill:#404040; stroke:none;" d="M43 23L44 24L43 23z"/>
<path style="fill:#6d6d6d; stroke:none;" d="M257 24L258 25L257 24z"/>
<path style="fill:#8e8e8e; stroke:none;" d="M256 26L257 27L256 26z"/>
<path style="fill:#cfcfcf; stroke:none;" d="M40 28L41 29L40 28z"/>
<path style="fill:#afafaf; stroke:none;" d="M255 28L256 29L255 28z"/>
<path style="fill:#b9b9b9; stroke:none;" d="M39 30L40 31L39 30z"/>
<path style="fill:#c5c5c5; stroke:none;" d="M254 30L255 31L254 30z"/>
<path style="fill:#9a9a9a; stroke:none;" d="M38 32L39 33L38 32z"/>
<path style="fill:#7c7c7c; stroke:none;" d="M37 34L38 35L37 34z"/>
<path style="fill:#2f2f2f; stroke:none;" d="M251 35L252 36L251 35z"/>
<path style="fill:#595959; stroke:none;" d="M36 36L37 37L36 36z"/>
<path style="fill:#525252; stroke:none;" d="M250 37L251 38L250 37z"/>
<path style="fill:#3c3c3c; stroke:none;" d="M35 38L36 39L35 38z"/>
<path style="fill:#737373; stroke:none;" d="M249 39L250 40L249 39z"/>
<path style="fill:#939393; stroke:none;" d="M248 41L249 42L248 41z"/>
<path style="fill:#cdcdcd; stroke:none;" d="M32 43L33 44L32 43z"/>
<path style="fill:#aeaeae; stroke:none;" d="M247 43L248 44L247 43z"/>
<path style="fill:#b1b1b1; stroke:none;" d="M31 45L32 46L31 45z"/>
<path style="fill:#c9c9c9; stroke:none;" d="M246 45L247 46L246 45z"/>
<path style="fill:#969696; stroke:none;" d="M30 47L31 48L30 47z"/>
<path style="fill:#757575; stroke:none;" d="M29 49L30 50L29 49z"/>
<path style="fill:#343434; stroke:none;" d="M243 50L244 51L243 50z"/>
<path style="fill:#5a5a5a; stroke:none;" d="M28 51L29 52L28 51z"/>
<path style="fill:#575757; stroke:none;" d="M242 52L243 53L242 52z"/>
<path style="fill:#373737; stroke:none;" d="M27 53L28 54L27 53z"/>
<path style="fill:#797979; stroke:none;" d="M241 54L242 55L241 54z"/>
<path style="fill:#979797; stroke:none;" d="M240 56L241 57L240 56z"/>
<path style="fill:#c5c5c5; stroke:none;" d="M24 58L25 59L24 58z"/>
<path style="fill:#b2b2b2; stroke:none;" d="M239 58L240 59L239 58z"/>
<path style="fill:#acacac; stroke:none;" d="M23 60L24 61L23 60z"/>
<path style="fill:#cdcdcd; stroke:none;" d="M238 60L239 61L238 60z"/>
<path style="fill:#8e8e8e; stroke:none;" d="M22 62L23 63L22 62z"/>
<path style="fill:#707070; stroke:none;" d="M21 64L22 65L21 64z"/>
<path style="fill:#353535; stroke:none;" d="M235 65L236 66L235 65z"/>
<path style="fill:#515151; stroke:none;" d="M20 66L21 67L20 66z"/>
<path style="fill:#5e5e5e; stroke:none;" d="M234 67L235 68L234 67z"/>
<path style="fill:#2e2e2e; stroke:none;" d="M19 68L20 69L19 68z"/>
<path style="fill:#7c7c7c; stroke:none;" d="M233 69L234 70L233 69z"/>
<path style="fill:#9b9b9b; stroke:none;" d="M232 71L233 72L232 71z"/>
<path style="fill:#c7c7c7; stroke:none;" d="M16 73L17 74L16 73z"/>
<path style="fill:#b6b6b6; stroke:none;" d="M231 73L232 74L231 73z"/>
<path style="fill:#a9a9a9; stroke:none;" d="M15 75L16 76L15 75z"/>
<path style="fill:#d0d0d0; stroke:none;" d="M230 75L231 76L230 75z"/>
<path style="fill:#8d8d8d; stroke:none;" d="M14 77L15 78L14 77z"/>
<path style="fill:#6c6c6c; stroke:none;" d="M13 79L14 80L13 79z"/>
<path style="fill:#414141; stroke:none;" d="M227 80L228 81L227 80z"/>
<path style="fill:#4d4d4d; stroke:none;" d="M12 81L13 82L12 81z"/>
<path style="fill:#666666; stroke:none;" d="M226 82L227 83L226 82z"/>
<path style="fill:#2e2e2e; stroke:none;" d="M11 83L12 84L11 83z"/>
<path style="fill:#858585; stroke:none;" d="M225 84L226 85L225 84z"/>
<path style="fill:#a1a1a1; stroke:none;" d="M224 86L225 87L224 86z"/>
<path style="fill:#bfbfbf; stroke:none;" d="M8 88L9 89L8 88z"/>
<path style="fill:#bbbbbb; stroke:none;" d="M223 88L224 89L223 88z"/>
<path style="fill:#a4a4a4; stroke:none;" d="M7 90L8 91L7 90z"/>
<path style="fill:#878787; stroke:none;" d="M6 92L7 93L6 92z"/>
<path style="fill:#646464; stroke:none;" d="M5 94L6 95L5 94z"/>
<path style="fill:#444444; stroke:none;" d="M219 95L220 96L219 95z"/>
<path style="fill:#484848; stroke:none;" d="M4 96L5 97L4 96z"/>
<path style="fill:#636363; stroke:none;" d="M218 97L219 98L218 97z"/>
<path style="fill:#d3d3d3; stroke:none;" d="M1 101L2 102L1 101z"/>
<path style="fill:#adadad; stroke:none;" d="M216 101L217 102L216 101z"/>
<path style="fill:#a9a9a9; stroke:none;" d="M215 102L216 103L215 102z"/>
<path style="fill:#343434; stroke:none;" d="M213 103L214 104L213 103z"/>
</svg>
