<?xml version="1.0" standalone="no"?><!DOCTYPE svg PUBLIC "-//W3C//DTD SVG 1.1//EN" "http://www.w3.org/Graphics/SVG/1.1/DTD/svg11.dtd"><svg t="1523352299419" class="icon" style="" viewBox="0 0 1024 1024" version="1.1" xmlns="http://www.w3.org/2000/svg" p-id="3823" xmlns:xlink="http://www.w3.org/1999/xlink" width="200" height="200"><defs><style type="text/css"></style></defs><path d="M512 962.874851c-248.28376 0-449.610044-201.86659-449.610044-450.875874 0-249.00826 201.326285-450.875874 449.610044-450.875874 248.374834 0 449.610044 201.86659 449.610044 450.875874C961.610044 761.009284 760.374834 962.874851 512 962.874851L512 962.874851zM638.495996 397.630183c0-27.688619-10.498098-52.481282-31.308053-74.468039-25.337061-26.782993-58.998719-40.173978-100.979856-40.173978-24.52251 0-46.689369 4.616134-66.412572 13.84431-19.72525 9.31925-35.201733 22.077831-46.236044 38.273698-11.042497 16.286941-19.276019 37.913495-24.792663 65.057715l78.896908 13.389962c2.26253-19.452028 8.507768-34.292014 18.823718-44.426839 10.313903-10.132778 22.711258-15.20019 37.276998-15.20019 14.750959 0 26.510794 4.432962 35.471886 13.390985 8.861832 8.958022 13.298887 20.901029 13.298887 35.921117 0 17.644869-6.066159 31.759331-18.186198 42.437531-12.218276 10.586103-29.860075 15.652492-52.93256 15.020088l-9.413394 69.310575c15.204283-4.344958 28.322046-6.42534 39.273469-6.42534 16.648169 0 30.765701 6.334265 42.34441 18.912745 11.493775 12.57541 17.281595 29.677926 17.281595 51.302433 0 22.801309-6.056949 40.898479-18.096147 54.289464-12.029988 13.481036-26.874067 20.177552-44.515866 20.177552-16.467043 0-30.493501-5.610788-41.981137-16.740266-11.584849-11.128455-18.644639-27.235294-21.354354-48.318472l-82.613556 10.04375c4.254907 37.550221 19.634176 67.952648 46.14497 91.206258 26.603915 23.162536 59.992349 34.83539 100.346429 34.83539 42.61661 0 78.17957-13.843286 106.772792-41.440831 28.585035-27.687596 42.886763-61.07603 42.886763-100.255355 0-27.054169-7.691169-50.126654-22.981411-69.218478-15.295358-19.091824-35.744086-31.397081-61.349253-36.826743C617.052614 468.115514 638.495996 436.808484 638.495996 397.630183L638.495996 397.630183z" p-id="3824" fill="#707070"></path></svg>