<?xml version="1.0" standalone="no"?><!DOCTYPE svg PUBLIC "-//W3C//DTD SVG 1.1//EN" "http://www.w3.org/Graphics/SVG/1.1/DTD/svg11.dtd"><svg t="1523352340679" class="icon" style="" viewBox="0 0 1024 1024" version="1.1" xmlns="http://www.w3.org/2000/svg" p-id="5668" xmlns:xlink="http://www.w3.org/1999/xlink" width="200" height="200"><defs><style type="text/css"></style></defs><path d="M512.047072 962.874851c-248.354368 0-449.657116-201.847148-449.657116-450.829825 0-249.073752 201.303772-450.919876 449.657116-450.919876 248.257154 0 449.562972 201.846124 449.562972 450.919876C961.610044 761.027703 760.304226 962.874851 512.047072 962.874851L512.047072 962.874851zM485.446227 365.025601l161.134911 0 0-80.249719L420.666852 284.775882l-43.787272 232.787834 69.12024 9.953699c19.451004-21.623483 41.524742-32.480762 66.047252-32.480762 19.717064 0 35.734876 6.876618 48.038086 20.536732 12.217253 13.752212 18.368346 34.289967 18.368346 61.70434 0 29.221532-6.152117 51.116191-18.457374 65.592904-12.30321 14.566764-27.415396 21.803585-45.146223 21.803585-15.650445 0-29.40368-5.699816-41.255613-16.918321-11.945053-11.30958-19.094894-26.599821-21.529339-45.959751l-85.412298 8.865925c5.067412 37.456077 20.62883 67.313082 46.503127 89.478917 25.967418 22.255887 59.532885 33.384341 100.69947 33.384341 51.477418 0 91.738377-19.723204 120.779807-59.169611 21.261233-28.860305 31.93841-61.702294 31.93841-98.525967 0-44.059472-13.210883-79.978543-39.621393-107.573017-26.421766-27.684526-58.629305-41.527812-96.720855-41.527812-19.902282 0-39.353286 4.796236-58.537208 14.295588L485.446227 365.025601 485.446227 365.025601z" p-id="5669" fill="#707070"></path></svg>