<?xml version="1.0" standalone="yes"?>
<svg xmlns="http://www.w3.org/2000/svg" width="70" height="95">
<path style="fill:#ffffff; stroke:none;" d="M0 0L0 27C6.5368 15.431 12.3935 3.6037 27 1C19.5911 -2.1089 8.02454 0 0 0z"/>
<path style="fill:#767474; stroke:none;" d="M23 69C12.0201 74.4845 9 83.4929 9 95L12 95C12.309 84.4435 21.7749 71.1377 33.0031 70.1127C38.4952 69.6113 44.824 72.9853 48.9599 76.3904C52.4391 79.2549 55.0811 83.3219 56.8958 87.4244C58.2281 90.4363 58.2167 93.0363 61 95C60.9711 84.9262 56.4731 73.5236 47 69C54.476 65.4411 61.1668 61.3556 65.517 54C74.0496 39.5725 71.0907 18.2563 57.9606 7.68056C50.3945 1.58633 39.4886 -0.608917 30 0.0902786C6.28249 1.83797 -6.18915 29.4594 2.46451 50C6.44054 59.4376 14.0954 64.761 23 69z"/>
<path style="fill:#ffffff; stroke:none;" d="M43 0C54.647 6.37648 65.4391 11.8748 69 26C72.0081 18.8314 70 7.76095 70 0L43 0z"/>
<path style="fill:#646564; stroke:none;" d="M43 1C45.3111 2.39312 47.3086 2.76524 50 3C47.6889 1.60688 45.6914 1.23476 43 1z"/>
<path style="fill:#626465; stroke:none;" d="M34 3C36.8496 4.9474 39.5903 4.96987 43 5C40.1706 3.72941 37.0838 3.39173 34 3z"/>
<path style="fill:#666463; stroke:none;" d="M27 4C29.3315 4.98453 31.4567 4.98125 34 5C31.6684 4.01546 29.5433 4.01875 27 4z"/>
<path style="fill:#ffffff; stroke:none;" d="M34 4.59491C1.49829 5.9157 -6.61192 52.0936 24 63.9313C28.2392 65.5707 32.4667 66.1732 37 65.9599C69.1468 64.4468 75.8337 19.1273 47 6.87963C42.9947 5.17831 38.3502 4.41813 34 4.59491z"/>
<path style="fill:#6c6767; stroke:none;" d="M4 27C3.74981 32.827 3.74981 38.173 4 44C5.74685 39.7994 5.74686 31.2006 4 27z"/>
<path style="fill:#656363; stroke:none;" d="M66 32L66 39C67.0595 36.4657 67.0595 34.5343 66 32M65 39L65 43C65.7102 41.2405 65.7102 40.7595 65 39z"/>
<path style="fill:#626463; stroke:none;" d="M68 43L68 48C68.9241 46.3519 69.4494 44.8251 70 43L68 43z"/>
<path style="fill:#ffffff; stroke:none;" d="M0 44L0 95L8 95C8.09674 83.4668 13.8718 75.5812 23 69C16.9652 64.9216 11.1332 61.9755 6.52932 56C3.67238 52.2919 2.45157 47.8766 0 44M69 44C66.7621 56.5467 56.6451 62.4818 47 69C56.2359 75.3256 61.9044 83.6084 62 95L70 95L70 61C70 55.6497 71.0851 48.9691 69 44z"/>
<path style="fill:#767474; stroke:none;" d="M22 47C25.1318 58.0568 43.6082 59.9493 47 48C42.8016 49.5769 38.8264 52.6732 34.0895 51.7168C29.3874 50.7674 27.1558 46.7984 22 47z"/>
<path style="fill:#6c6a68; stroke:none;" d="M31 51C33.8203 52.1834 36.9863 52.2932 39.9992 51.4954C42.8407 50.7429 44.7835 48.6943 47 51C47.47 49.6207 47.9945 47.4457 45.679 47.3009C43.31 47.1529 41.1062 49.3429 39 50.1474C36.4358 51.1267 33.6954 50.9908 31 51z"/>
<path style="fill:#656364; stroke:none;" d="M30 55C31.5061 55.683 32.3148 55.8259 34 56C32.494 55.317 31.6852 55.1741 30 55M24 64C28.4458 67.8662 34.4149 67 40 67C35.3419 65.0454 29.0724 65.1595 24 64z"/>
<path style="fill:#656363; stroke:none;" d="M27 71C30.8933 72.1975 35.8512 71.0027 40 71C35.9108 69.2841 31.2367 69.9913 27 71z"/>
<path style="fill:#ffffff; stroke:none;" d="M13 95L58 95C56.2081 87.56 55.6368 80.6414 48.9599 75.6381C32.6928 63.4485 13.1567 76.3182 13 95z"/>
<path style="fill:#6b6a68; stroke:none;" d="M55 76L60 87C61.1935 82.6475 58.2013 78.7446 55 76z"/>
<path style="fill:#656363; stroke:none;" d="M8 87L8 95C9.16138 92.2301 9.16138 89.7699 8 87z"/>
<path style="fill:#646565; stroke:none;" d="M57 87C57.0209 89.8495 57.1898 92.271 58 95C58.668 92.213 58.1724 89.6132 57 87z"/>
<path style="fill:#656363; stroke:none;" d="M61 87L61 95C62.1614 92.2301 62.1614 89.7699 61 87z"/>
<path style="fill:#666364; stroke:none;" d="M12 88L12 95C13.0595 92.4657 13.0595 90.5343 12 88z"/>
</svg>
