<?xml version="1.0" standalone="yes"?>
<svg xmlns="http://www.w3.org/2000/svg" width="234" height="104">
<path style="fill:#000000; stroke:none;" d="M0 0L0 104L126 104L160 104C164.449 104 170.804 105.113 174.815 102.821C178.02 100.99 179.638 97.1356 181.245 94C184.176 88.2801 187.268 82.5991 190.424 77C199.218 61.4026 207.617 45.5889 216.424 30C221.765 20.5477 228.983 10.4525 232 0L0 0z"/>
<path style="fill:#ffffff; stroke:none;" d="M232 0C222.025 23.8325 206.745 46.3494 194.306 69C190.643 75.6683 186.928 82.309 183.309 89C180.561 94.079 178.525 99.2505 174 103C179.462 105.292 187.113 104 193 104L234 104L234 0L232 0z"/>
</svg>
