<?xml version="1.0" standalone="no"?><!DOCTYPE svg PUBLIC "-//W3C//DTD SVG 1.1//EN" "http://www.w3.org/Graphics/SVG/1.1/DTD/svg11.dtd"><svg t="1523450555622" class="icon" style="" viewBox="0 0 1024 1024" version="1.1" xmlns="http://www.w3.org/2000/svg" p-id="6872" xmlns:xlink="http://www.w3.org/1999/xlink" width="200" height="200"><defs><style type="text/css"></style></defs><path d="M512.027647 881.580894c-49.871825 0-98.265057-9.774693-143.836263-29.051708-44.004552-18.615538-83.522124-45.258899-117.455035-79.19181s-60.576272-73.449459-79.190786-117.455035c-19.278038-45.571206-29.052732-93.964437-29.052732-143.836263 0-49.882065 9.774693-98.282464 29.051708-143.85879 18.614514-44.008648 45.258899-83.528268 79.19181-117.461179 33.931887-33.931887 73.449459-60.575248 117.456059-79.188738 45.569158-19.274966 93.963414-29.048636 143.835239-29.048636 49.869777 0 98.260961 9.77367 143.829095 29.04966 44.004552 18.614514 83.520076 45.256851 117.451963 79.188738 33.931887 33.932911 60.575248 73.452531 79.189762 117.461179 19.277014 45.575302 29.051708 93.975701 29.051708 143.857766 0 49.871825-9.774693 98.265057-29.051708 143.836263-18.615538 44.005576-45.257875 83.522124-79.189762 117.455035-33.932911 33.932911-73.447411 60.576272-117.451963 79.19181C610.288608 871.8062 561.897424 881.580894 512.027647 881.580894zM512.027647 183.396841c-181.204549 0-328.62671 147.431376-328.62671 328.649237 0 181.205573 147.421136 328.62671 328.62671 328.62671 181.198406 0 328.614422-147.421136 328.614422-328.62671C840.642069 330.828217 693.227076 183.396841 512.027647 183.396841z" p-id="6873" fill="#C89A76"></path><path d="M372.395751 372.390632c25.704392 0 46.543965 20.840597 46.543965 46.567516 0 25.680841-20.840597 46.543965-46.543965 46.543965-25.703368 0-46.543965-20.863124-46.543965-46.543965C325.851786 393.231228 346.692383 372.390632 372.395751 372.390632z" p-id="6874" fill="#C89A76"></path><path d="M651.648279 372.390632c25.704392 0 46.543965 20.840597 46.543965 46.567516 0 25.680841-20.840597 46.543965-46.543965 46.543965s-46.543965-20.863124-46.543965-46.543965C605.104314 393.231228 625.94491 372.390632 651.648279 372.390632z" p-id="6875" fill="#C89A76"></path><path d="M395.667222 628.406503l232.708562 0c12.863972 0 23.272495 10.408523 23.272495 23.272495 0 12.817894-10.408523 23.272495-23.272495 23.272495L395.667222 674.951492c-12.862948 0-23.272495-10.454601-23.272495-23.272495C372.395751 638.815026 382.804274 628.406503 395.667222 628.406503z" p-id="6876" fill="#C89A76"></path></svg>