<?xml version="1.0" standalone="no"?><!DOCTYPE svg PUBLIC "-//W3C//DTD SVG 1.1//EN" "http://www.w3.org/Graphics/SVG/1.1/DTD/svg11.dtd"><svg t="1523450502501" class="icon" style="" viewBox="0 0 1024 1024" version="1.1" xmlns="http://www.w3.org/2000/svg" p-id="6442" xmlns:xlink="http://www.w3.org/1999/xlink" width="200" height="200"><defs><style type="text/css"></style></defs><path d="M512.023551 880.297875c-49.70492 0-97.933295-9.739879-143.345787-28.950336-43.853006-18.548981-83.233368-45.10121-117.0475-78.916366-33.813108-33.814132-60.363289-73.195518-78.911246-117.048524-19.208409-45.411469-28.947264-93.635747-28.947264-143.335548 0-49.71004 9.738855-97.94251 28.947264-143.358075 18.547957-43.856078 45.098138-83.239512 78.911246-117.053644 33.813108-33.814132 73.19347-60.365337 117.0475-78.914318 45.412493-19.208409 93.640867-28.948288 143.345787-28.948288s97.933295 9.739879 143.344764 28.948288c43.85403 18.548981 83.234392 45.100186 117.048524 78.914318 33.813108 33.815156 60.363289 73.197566 78.911246 117.053644 19.208409 45.415565 28.947264 93.649059 28.947264 143.358075 0 49.699801-9.738855 97.925103-28.947264 143.335548-18.548981 43.851982-45.099162 83.233368-78.911246 117.048524-33.814132 33.815156-73.194494 60.367385-117.0475 78.916366C609.955822 870.557997 561.727447 880.297875 512.023551 880.297875zM512.023551 182.122015c-181.908008 0-329.900512 148.003768-329.900512 329.924063 0 181.906984 147.992504 329.901536 329.900512 329.901536 181.908008 0 329.901536-147.993528 329.901536-329.901536C841.924063 330.125783 693.931559 182.122015 512.023551 182.122015z" p-id="6443" fill="#C89A76"></path><path d="M395.66415 695.401961c-5.234468 0-10.468936-1.996716-14.463393-5.991172-7.987889-7.987889-7.987889-20.937873 0-28.926785 24.458237-24.459261 62.754228-52.534114 142.458017-52.534114 74.324942 0 118.494351 28.5684 142.458017 52.535138 7.987889 7.987889 7.987889 20.937873-0.001024 28.925761-7.986865 7.988912-20.938897 7.987889-28.925761-0.001024-18.497783-18.498807-53.211973-40.551769-113.531232-40.551769-64.308595 0-93.479082 20.499619-113.531232 40.552793C406.13411 693.405245 400.899642 695.401961 395.66415 695.401961z" p-id="6444" fill="#C89A76"></path><path d="M306.289088 448.734817c-9.184894 0-17.535264-6.229754-19.839167-15.546739-2.712462-10.965555 3.978073-22.05501 14.943628-24.767472l119.062647-29.453099c10.966579-2.710414 22.05501 3.978073 24.767472 14.943628 2.712462 10.965555-3.978073 22.05501-14.943628 24.767472l-119.062647 29.453099C309.566774 448.540265 307.915132 448.734817 306.289088 448.734817z" p-id="6445" fill="#C89A76"></path><path d="M741.27933 448.667236c-1.613756 0-3.254135-0.192504-4.891443-0.594919l-119.539811-29.33944c-10.970675-2.693007-17.681689-13.76915-14.988682-24.739825 2.690959-10.970675 13.765054-17.687833 24.739825-14.988682l119.539811 29.33944c10.970675 2.693007 17.681689 13.76915 14.988682 24.739825C758.837121 442.417002 750.47856 448.667236 741.27933 448.667236z" p-id="6446" fill="#C89A76"></path></svg>