<?xml version="1.0" standalone="yes"?>
<svg xmlns="http://www.w3.org/2000/svg" width="692" height="221">
<path style="fill:#f8f8f8; stroke:none;" d="M0 0L0 4L4 1C2.49397 0.316971 1.6852 0.174103 0 0z"/>
<path style="fill:#c2c2c2; stroke:none;" d="M0 14C4.43106 14 11.9117 15.5342 15 12C10.3449 13.1083 5.76107 13 1 13C1.02696 10.0218 0.841185 6.74249 2.74228 4.22839C7.49121 -2.05179 23.9695 1 31 1L128 1L545 1L657 1L678 1C681.61 1.00603 685.788 0.655914 688.566 3.43364C691.127 5.99423 690.97 9.65321 691 13C686.239 13 681.655 13.1083 677 12C680.088 15.5342 687.569 14 692 14C692 10.3986 692.776 5.39447 690.258 2.43364C687.794 -0.462906 683.41 0.00569153 680 0L657 0L546 0L127 0L31 0L11 0.000762939C7.83666 0.0174408 4.00785 -0.229599 1.74228 2.43364C-0.776384 5.39441 0.000397504 10.3986 0 14z"/>
<path style="fill:#ffffff; stroke:none;" d="M688 0L691 4C691.683 2.49396 691.826 1.68521 692 0L688 0z"/>
<path style="fill:#575757; stroke:none;" d="M5 1C9.46874 2.87515 15.1913 2 20 2L51 2L158 2L530 2L653 2L676 2C679.557 2.00137 683.803 1.51311 686.852 3.74228C689.683 5.81219 689.896 8.79008 690 12L678 12C681.959 13.6611 686.737 13 691 13C690.99 9.58417 691.467 5.20947 688.566 2.74228C685.806 0.394028 681.354 1.0013 678 1L654 1L531 1L5 1z"/>
<path style="fill:#626262; stroke:none;" d="M2 12C5.64993 12 10.2538 12.7341 13.7145 11.412C16.2415 10.4467 18.1064 7.85223 21 7.86652C25.7674 7.89006 28.6102 12.9907 34 12.9907C39.3768 12.9907 42.2504 7.86728 47 7.86728C51.7496 7.86728 54.6232 12.9907 60 12.9907C65.3768 12.9907 68.2504 7.86728 73 7.86728C77.7496 7.86728 80.6232 12.9907 86 12.9907C91.3768 12.9907 94.2504 7.86728 99 7.86728C103.75 7.86728 106.623 12.9907 112 12.9907C117.377 12.9907 120.25 7.86728 125 7.86728C129.75 7.86728 132.623 12.9907 138 12.9907C143.377 12.9907 146.25 7.86728 151 7.86728C155.75 7.86728 158.623 12.9907 164 12.9907C169.377 12.9907 172.25 7.86728 177 7.86728C181.75 7.86728 184.623 12.9907 190 12.9907C195.377 12.9907 198.25 7.86728 203 7.86728C207.75 7.86728 210.623 12.9907 216 12.9907C221.377 12.9907 224.25 7.86728 229 7.86728C233.75 7.86728 236.623 12.9907 242 12.9907C247.377 12.9907 250.25 7.86728 255 7.86728C259.75 7.86728 262.623 12.9907 268 12.9907C273.377 12.9907 276.25 7.86728 281 7.86728C285.75 7.86728 288.623 12.9907 294 12.9907C299.377 12.9907 302.25 7.86728 307 7.86728C311.75 7.86728 314.623 12.9907 320 12.9907C325.377 12.9907 328.25 7.86728 333 7.86728C337.75 7.86728 340.623 12.9907 346 12.9907C351.377 12.9907 354.25 7.86728 359 7.86728C363.75 7.86728 366.623 12.9907 372 12.9907C377.377 12.9907 380.25 7.86728 385 7.86728C389.75 7.86728 392.623 12.9907 398 12.9907C403.377 12.9907 406.25 7.86728 411 7.86728C415.75 7.86728 418.623 12.9907 424 12.9907C429.377 12.9907 432.25 7.86728 437 7.86728C441.75 7.86728 444.623 12.9907 450 12.9907C455.377 12.9907 458.25 7.86728 463 7.86728C467.75 7.86728 470.623 12.9907 476 12.9907C481.377 12.9907 484.25 7.86728 489 7.86728C493.75 7.86728 496.623 12.9907 502 12.9907C507.377 12.9907 510.25 7.86728 515 7.86728C519.456 7.86728 522.134 12.8006 527.004 12.9799C529.254 13.0628 531.678 13.0685 533.714 11.9877C536.177 10.6802 537.945 7.86728 541 7.86728C544.055 7.86728 545.823 10.6803 548.286 11.9877C550.727 13.2836 554.279 13.2821 556.961 12.8519C560.816 12.2332 563.098 7.86728 567 7.86728C571.456 7.86728 574.134 12.8006 579.004 12.9799C581.254 13.0628 583.679 13.0685 585.714 11.9877C588.177 10.6802 589.945 7.86728 593 7.86728C597.456 7.86728 600.134 12.8006 605.004 12.9799C607.254 13.0628 609.679 13.0685 611.714 11.9877C614.177 10.6802 615.945 7.86728 619 7.86728C623.174 7.86728 625.653 12.5629 630.015 12.9414C632.507 13.1577 635.455 13.1869 637.714 11.9877C640.177 10.6802 641.945 7.86728 645 7.86728C648.902 7.86728 651.184 12.2332 655.039 12.8519C657.721 13.2821 661.273 13.2836 663.714 11.9877C666.185 10.6763 667.94 7.88162 671 7.86652C673.894 7.85223 675.759 10.4467 678.286 11.412C681.746 12.734 686.35 12 690 12C689.966 9.08224 690.176 5.79758 687.682 3.74228C685.075 1.59401 681.146 2.00526 678 2L656 2L544 2L128 2L32 2L11 2C8.57941 2.00497 4.74592 1.43582 3.02778 3.60339C1.37924 5.68314 2.00191 9.52823 2 12z"/>
<path style="fill:#575757; stroke:none;" d="M1 5L1 13L14 13C10.3025 11.4485 5.98318 12 2 12C1.98125 9.4567 1.98452 7.33153 1 5z"/>
<path style="fill:#b1aba6; stroke:none;" d="M19 7C20.506 7.68303 21.3148 7.8259 23 8C21.494 7.31697 20.6852 7.1741 19 7z"/>
<path style="fill:#b0aca4; stroke:none;" d="M45 7C46.506 7.68303 47.3148 7.8259 49 8C47.494 7.31697 46.6852 7.1741 45 7z"/>
<path style="fill:#b0aaa2; stroke:none;" d="M71 7C72.5061 7.68304 73.3148 7.82588 75 8C73.4939 7.31696 72.6852 7.17412 71 7z"/>
<path style="fill:#b0aca6; stroke:none;" d="M97 7C98.506 7.68303 99.3148 7.8259 101 8C99.4939 7.31696 98.6852 7.1741 97 7z"/>
<path style="fill:#b1aba6; stroke:none;" d="M123 7C124.506 7.68303 125.315 7.8259 127 8C125.494 7.31696 124.685 7.1741 123 7z"/>
<path style="fill:#b0aca4; stroke:none;" d="M149 7C150.506 7.68303 151.315 7.8259 153 8C151.494 7.31697 150.685 7.17412 149 7z"/>
<path style="fill:#b0aaa2; stroke:none;" d="M175 7C176.506 7.68303 177.315 7.8259 179 8C177.494 7.31696 176.685 7.17412 175 7z"/>
<path style="fill:#b0aca6; stroke:none;" d="M201 7C202.506 7.68301 203.315 7.8259 205 8C203.494 7.31696 202.685 7.17412 201 7z"/>
<path style="fill:#b1aba6; stroke:none;" d="M227 7C228.506 7.68304 229.315 7.8259 231 8C229.494 7.31697 228.685 7.1741 227 7z"/>
<path style="fill:#b0aca4; stroke:none;" d="M253 7C254.506 7.68303 255.315 7.8259 257 8C255.494 7.31697 254.685 7.17412 253 7z"/>
<path style="fill:#b0aaa2; stroke:none;" d="M279 7C280.506 7.68303 281.315 7.8259 283 8C281.494 7.31697 280.685 7.1741 279 7z"/>
<path style="fill:#b0aca6; stroke:none;" d="M305 7C306.506 7.68301 307.315 7.8259 309 8C307.494 7.31696 306.685 7.17412 305 7z"/>
<path style="fill:#b1aba6; stroke:none;" d="M331 7C332.506 7.68301 333.315 7.8259 335 8C333.494 7.31694 332.685 7.17412 331 7z"/>
<path style="fill:#b0aca4; stroke:none;" d="M357 7C358.506 7.68303 359.315 7.8259 361 8C359.494 7.31694 358.685 7.17412 357 7z"/>
<path style="fill:#b0aaa2; stroke:none;" d="M383 7C384.506 7.683 385.315 7.8259 387 8C385.494 7.31696 384.685 7.17412 383 7z"/>
<path style="fill:#b0aca6; stroke:none;" d="M409 7C410.506 7.683 411.315 7.8259 413 8C411.494 7.31693 410.685 7.17412 409 7z"/>
<path style="fill:#b1aba6; stroke:none;" d="M435 7C436.506 7.68303 437.315 7.8259 439 8C437.494 7.31696 436.685 7.17412 435 7z"/>
<path style="fill:#b0aca4; stroke:none;" d="M461 7C462.506 7.68301 463.315 7.8259 465 8C463.494 7.31694 462.685 7.17412 461 7z"/>
<path style="fill:#b0aaa2; stroke:none;" d="M487 7C488.506 7.68301 489.315 7.8259 491 8C489.494 7.31694 488.685 7.17412 487 7z"/>
<path style="fill:#b0aca6; stroke:none;" d="M513 7C514.506 7.68306 515.315 7.8259 517 8C515.494 7.31694 514.685 7.1741 513 7z"/>
<path style="fill:#b1aba6; stroke:none;" d="M539 7C540.506 7.68306 541.315 7.8259 543 8C541.494 7.31697 540.685 7.1741 539 7z"/>
<path style="fill:#b0aca4; stroke:none;" d="M565 7C566.506 7.68309 567.315 7.82588 569 8C567.494 7.31697 566.685 7.1741 565 7z"/>
<path style="fill:#b0aaa2; stroke:none;" d="M591 7C592.506 7.68306 593.315 7.82588 595 8C593.494 7.31697 592.685 7.1741 591 7z"/>
<path style="fill:#b0aca6; stroke:none;" d="M617 7C618.506 7.68306 619.315 7.82588 621 8C619.494 7.31697 618.685 7.1741 617 7z"/>
<path style="fill:#b1aba6; stroke:none;" d="M643 7C644.506 7.68306 645.315 7.8259 647 8C645.494 7.31694 644.685 7.1741 643 7z"/>
<path style="fill:#b0aca4; stroke:none;" d="M669 7C670.506 7.68307 671.315 7.82588 673 8C671.494 7.31697 670.685 7.1741 669 7z"/>
<path style="fill:#bbbab8; stroke:none;" d="M17.6667 8.33333C17.2222 8.7778 18.2778 8.72221 18.3333 8.66667C18.7778 8.22218 17.7222 8.27777 17.6667 8.33333z"/>
<path style="fill:#ffffff; stroke:none;" d="M2 14L2 144C21.0082 147.443 21.0082 172.557 2 176L2 214C-1.44155 202.357 1 187.133 1 175C19.8953 172.526 20.0146 147.489 1 145L1 14C-1.39487 19.7073 0 27.846 0 34L0 75L0 221L5 221L4 219C18.835 220.875 34.0497 220 49 220L122 220L346 220L570 220L643 220C657.95 220 673.165 220.875 688 219L687 221L692 221L692 14C688.11 14 682.862 14.9053 679.209 13.4005C676.119 12.1275 674.729 8.45679 671 8.45679C666.004 8.45679 663.655 13.9907 658 13.9907C652.345 13.9907 649.996 8.45679 645 8.45679C641.577 8.45679 640.249 11.4759 637.625 12.9877C635.286 14.3349 631.642 14.2742 629.043 13.8519C624.983 13.1921 623.209 8.45679 619 8.45679C615.577 8.45679 614.249 11.4759 611.625 12.9877C609.456 14.2368 606.437 14.1526 604.015 13.9414C599.428 13.5413 597.458 8.45679 593 8.45679C588.791 8.45679 587.017 13.1921 582.957 13.8519C580.358 14.2742 576.714 14.3349 574.375 12.9877C571.751 11.4759 570.423 8.45679 567 8.45679C563.577 8.45679 562.249 11.4759 559.625 12.9877C557.668 14.1148 555.193 14.0607 553.004 13.9799C547.881 13.791 545.72 8.45679 541 8.45679C536.791 8.45679 535.017 13.1922 530.957 13.8519C528.358 14.2742 524.714 14.3349 522.375 12.9877C519.751 11.4759 518.423 8.45679 515 8.45679C511.576 8.45679 510.25 11.4758 507.625 12.9877C505.668 14.1149 503.193 14.0607 501.004 13.9799C495.882 13.791 493.72 8.45679 489 8.45679C484.005 8.45679 481.655 13.9907 476 13.9907C470.345 13.9907 467.995 8.45679 463 8.45679C458.005 8.45679 455.655 13.9907 450 13.9907C444.345 13.9907 441.995 8.45679 437 8.45679C433.577 8.45679 432.25 11.4758 429.625 12.9877C427.286 14.3349 423.642 14.2742 421.043 13.8519C416.983 13.1922 415.209 8.45679 411 8.45679C407.577 8.45679 406.25 11.4758 403.625 12.9877C401.456 14.2368 398.437 14.1526 396.015 13.9414C391.428 13.5413 389.458 8.45679 385 8.45679C380.28 8.45679 378.119 13.791 372.996 13.9799C370.807 14.0607 368.332 14.1148 366.375 12.9877C363.751 11.4759 362.423 8.45679 359 8.45679C355.577 8.45679 354.25 11.4758 351.625 12.9877C349.286 14.3349 345.642 14.2742 343.043 13.8519C338.983 13.1922 337.209 8.45679 333 8.45679C328.28 8.45679 326.118 13.791 320.996 13.9799C318.807 14.0607 316.332 14.1148 314.375 12.9877C311.751 11.4759 310.423 8.45679 307 8.45679C303.577 8.45679 302.25 11.4758 299.625 12.9877C297.286 14.3349 293.642 14.2742 291.043 13.8519C286.983 13.1922 285.209 8.45679 281 8.45679C276.542 8.45679 274.572 13.5413 269.985 13.9414C267.563 14.1526 264.543 14.2368 262.375 12.9877C259.751 11.4759 258.423 8.45679 255 8.45679C250.791 8.45679 249.017 13.1922 244.957 13.8519C242.358 14.2742 238.714 14.3349 236.375 12.9877C233.751 11.4759 232.423 8.45679 229 8.45679C224.005 8.45679 221.655 13.9907 216 13.9907C210.345 13.9907 207.995 8.45679 203 8.45679C198.005 8.45679 195.655 13.9907 190 13.9907C184.345 13.9907 181.995 8.45679 177 8.45679C172.28 8.45679 170.119 13.791 164.996 13.9799C162.807 14.0607 160.332 14.1148 158.375 12.9877C155.751 11.4759 154.423 8.45679 151 8.45679C147.577 8.45679 146.249 11.4759 143.625 12.9877C141.286 14.3349 137.642 14.2742 135.043 13.8519C130.983 13.1922 129.209 8.45679 125 8.45679C120.542 8.45679 118.572 13.5413 113.985 13.9414C111.563 14.1526 108.543 14.2368 106.375 12.9877C103.751 11.4759 102.423 8.45679 99 8.45679C94.5422 8.45679 92.5715 13.5413 87.9846 13.9414C85.5626 14.1526 82.5434 14.2368 80.375 12.9877C77.7505 11.4759 76.4234 8.45679 73 8.45679C68.7907 8.45679 67.017 13.1922 62.9568 13.8519C60.3576 14.2742 56.7138 14.3349 54.375 12.9877C51.7505 11.4759 50.4234 8.45679 47 8.45679C42.0046 8.45679 39.6553 13.9907 34 13.9907C28.3447 13.9907 25.9954 8.45679 21 8.45679C17.2712 8.45679 15.8807 12.1275 12.7909 13.4005C9.64973 14.6946 5.3361 14 2 14z"/>
<path style="fill:#b1b0ab; stroke:none;" d="M23.6667 8.33333C23.2222 8.7778 24.2778 8.72221 24.3333 8.66667C24.7778 8.22218 23.7222 8.27777 23.6667 8.33333z"/>
<path style="fill:#b9babe; stroke:none;" d="M43.6667 8.33333C43.2222 8.77779 44.2778 8.7222 44.3333 8.66667C44.7778 8.22217 43.7222 8.27779 43.6667 8.33333z"/>
<path style="fill:#b1b0aa; stroke:none;" d="M49.6667 8.33333C49.2222 8.77779 50.2778 8.7222 50.3333 8.66667C50.7778 8.22217 49.7222 8.27779 49.6667 8.33333z"/>
<path style="fill:#bbb9bb; stroke:none;" d="M69.6667 8.33333C69.2222 8.77783 70.2778 8.72221 70.3333 8.66667C70.7777 8.22224 69.7222 8.27776 69.6667 8.33333z"/>
<path style="fill:#b4b0a7; stroke:none;" d="M75.6667 8.33333C75.2222 8.77783 76.2778 8.72221 76.3333 8.66667C76.7778 8.22224 75.7222 8.27774 75.6667 8.33333z"/>
<path style="fill:#bababb; stroke:none;" d="M95.6667 8.33333C95.2222 8.77782 96.2778 8.72223 96.3333 8.66667C96.7777 8.22226 95.7223 8.27774 95.6667 8.33333z"/>
<path style="fill:#b4afab; stroke:none;" d="M101.667 8.33333C101.222 8.77782 102.278 8.72223 102.333 8.66667C102.778 8.22224 101.722 8.27777 101.667 8.33333z"/>
<path style="fill:#bbbab8; stroke:none;" d="M121.667 8.33333C121.222 8.77782 122.278 8.72223 122.333 8.66667C122.778 8.22226 121.722 8.27774 121.667 8.33333z"/>
<path style="fill:#b1b0ab; stroke:none;" d="M127.667 8.33333C127.222 8.77776 128.278 8.72223 128.333 8.66667C128.778 8.22212 127.722 8.27783 127.667 8.33333z"/>
<path style="fill:#b9babe; stroke:none;" d="M147.667 8.33333C147.222 8.77783 148.278 8.72218 148.333 8.66667C148.778 8.22226 147.722 8.27771 147.667 8.33333z"/>
<path style="fill:#b1b0aa; stroke:none;" d="M153.667 8.33333C153.222 8.77782 154.278 8.7222 154.333 8.66667C154.778 8.22223 153.722 8.27774 153.667 8.33333z"/>
<path style="fill:#bbb9bb; stroke:none;" d="M173.667 8.33333C173.222 8.7778 174.278 8.72223 174.333 8.66667C174.778 8.22226 173.722 8.27771 173.667 8.33333z"/>
<path style="fill:#b4b0a7; stroke:none;" d="M179.667 8.33333C179.222 8.77779 180.278 8.72221 180.333 8.66667C180.778 8.22226 179.722 8.27773 179.667 8.33333z"/>
<path style="fill:#bababb; stroke:none;" d="M199.667 8.33333C199.222 8.77782 200.278 8.7222 200.333 8.66667C200.778 8.22226 199.722 8.27773 199.667 8.33333z"/>
<path style="fill:#b4afab; stroke:none;" d="M205.667 8.33333C205.222 8.77779 206.278 8.72221 206.333 8.66667C206.778 8.22226 205.722 8.27773 205.667 8.33333z"/>
<path style="fill:#bbbab8; stroke:none;" d="M225.667 8.33333C225.222 8.7778 226.278 8.7222 226.333 8.66667C226.778 8.22223 225.722 8.27774 225.667 8.33333z"/>
<path style="fill:#b1b0ab; stroke:none;" d="M231.667 8.33333C231.222 8.77782 232.278 8.7222 232.333 8.66667C232.778 8.22226 231.722 8.27771 231.667 8.33333z"/>
<path style="fill:#b9babe; stroke:none;" d="M251.667 8.33333C251.222 8.77779 252.278 8.72221 252.333 8.66667C252.778 8.22226 251.722 8.27769 251.667 8.33333z"/>
<path style="fill:#b1b0aa; stroke:none;" d="M257.667 8.33333C257.222 8.77773 258.278 8.72226 258.333 8.66667C258.778 8.22212 257.722 8.27783 257.667 8.33333z"/>
<path style="fill:#bbb9bb; stroke:none;" d="M277.667 8.33333C277.222 8.77773 278.278 8.72226 278.333 8.66667C278.778 8.22212 277.722 8.27783 277.667 8.33333z"/>
<path style="fill:#b4b0a7; stroke:none;" d="M283.667 8.33333C283.222 8.77773 284.278 8.72226 284.333 8.66667C284.778 8.22212 283.722 8.27783 283.667 8.33333z"/>
<path style="fill:#bababb; stroke:none;" d="M303.667 8.33333C303.222 8.77771 304.278 8.72231 304.333 8.66667C304.778 8.22211 303.722 8.27788 303.667 8.33333z"/>
<path style="fill:#b4afab; stroke:none;" d="M309.667 8.33333C309.222 8.77773 310.278 8.72226 310.333 8.66667C310.778 8.22212 309.722 8.27783 309.667 8.33333z"/>
<path style="fill:#bbbab8; stroke:none;" d="M329.667 8.33333C329.222 8.77773 330.278 8.72226 330.333 8.66667C330.778 8.22212 329.722 8.27783 329.667 8.33333z"/>
<path style="fill:#b1b0ab; stroke:none;" d="M335.667 8.33333C335.222 8.77771 336.278 8.72231 336.333 8.66667C336.778 8.22212 335.722 8.27783 335.667 8.33333z"/>
<path style="fill:#b9babe; stroke:none;" d="M355.667 8.33333C355.222 8.77771 356.278 8.72231 356.333 8.66667C356.778 8.22212 355.722 8.27783 355.667 8.33333z"/>
<path style="fill:#b1b0aa; stroke:none;" d="M361.667 8.33333C361.222 8.77773 362.278 8.72226 362.333 8.66667C362.778 8.22215 361.722 8.27779 361.667 8.33333z"/>
<path style="fill:#bbb9bb; stroke:none;" d="M381.667 8.33333C381.222 8.77771 382.278 8.72231 382.333 8.66667C382.778 8.22212 381.722 8.27783 381.667 8.33333z"/>
<path style="fill:#b4b0a7; stroke:none;" d="M387.667 8.33333C387.222 8.77766 388.278 8.72232 388.333 8.66667C388.778 8.22211 387.722 8.27788 387.667 8.33333z"/>
<path style="fill:#bababb; stroke:none;" d="M407.667 8.33333C407.222 8.77771 408.278 8.72231 408.333 8.66667C408.778 8.22212 407.722 8.27783 407.667 8.33333z"/>
<path style="fill:#b4afab; stroke:none;" d="M413.667 8.33333C413.222 8.77768 414.278 8.72227 414.333 8.66667C414.778 8.22212 413.722 8.27783 413.667 8.33333z"/>
<path style="fill:#bbbab8; stroke:none;" d="M433.667 8.33333C433.222 8.77766 434.278 8.72232 434.333 8.66667C434.778 8.22211 433.722 8.27788 433.667 8.33333z"/>
<path style="fill:#b1b0ab; stroke:none;" d="M439.667 8.33333C439.222 8.77771 440.278 8.72223 440.333 8.66667C440.778 8.22211 439.722 8.27788 439.667 8.33333z"/>
<path style="fill:#b9babe; stroke:none;" d="M459.667 8.33333C459.222 8.77773 460.278 8.72226 460.333 8.66667C460.778 8.22212 459.722 8.27783 459.667 8.33333z"/>
<path style="fill:#b1b0aa; stroke:none;" d="M465.667 8.33333C465.222 8.77771 466.278 8.72231 466.333 8.66667C466.778 8.22212 465.722 8.27783 465.667 8.33333z"/>
<path style="fill:#bbb9bb; stroke:none;" d="M485.667 8.33333C485.222 8.77763 486.278 8.72231 486.333 8.66667C486.778 8.22212 485.722 8.27783 485.667 8.33333z"/>
<path style="fill:#b4b0a7; stroke:none;" d="M491.667 8.33333C491.222 8.77766 492.278 8.72232 492.333 8.66667C492.778 8.22211 491.722 8.27788 491.667 8.33333z"/>
<path style="fill:#bababb; stroke:none;" d="M511.667 8.33333C511.222 8.77783 512.278 8.72218 512.333 8.66667C512.778 8.22218 511.722 8.27783 511.667 8.33333z"/>
<path style="fill:#b4afab; stroke:none;" d="M517.667 8.33333C517.222 8.77786 518.278 8.72215 518.333 8.66667C518.778 8.22227 517.722 8.27776 517.667 8.33333z"/>
<path style="fill:#bbbab8; stroke:none;" d="M537.667 8.33333C537.222 8.77795 538.278 8.72211 538.333 8.66667C538.778 8.22232 537.722 8.27766 537.667 8.33333z"/>
<path style="fill:#b1b0ab; stroke:none;" d="M543.667 8.33333C543.222 8.77791 544.278 8.7222 544.333 8.66667C544.778 8.22232 543.722 8.27766 543.667 8.33333z"/>
<path style="fill:#b9babe; stroke:none;" d="M563.667 8.33333C563.222 8.77786 564.278 8.72215 564.333 8.66667C564.778 8.22232 563.722 8.27766 563.667 8.33333z"/>
<path style="fill:#b1b0aa; stroke:none;" d="M569.667 8.33333C569.222 8.77795 570.278 8.72211 570.333 8.66667C570.778 8.22232 569.722 8.27766 569.667 8.33333z"/>
<path style="fill:#bbb9bb; stroke:none;" d="M589.667 8.33333C589.222 8.77786 590.278 8.72215 590.333 8.66667C590.778 8.22232 589.722 8.27766 589.667 8.33333z"/>
<path style="fill:#b4b0a7; stroke:none;" d="M595.667 8.33333C595.222 8.77795 596.278 8.72211 596.333 8.66667C596.778 8.22232 595.722 8.27766 595.667 8.33333z"/>
<path style="fill:#bababb; stroke:none;" d="M615.667 8.33333C615.222 8.77791 616.278 8.7222 616.333 8.66667C616.778 8.22232 615.722 8.27766 615.667 8.33333z"/>
<path style="fill:#b4afab; stroke:none;" d="M621.667 8.33333C621.222 8.77795 622.278 8.72211 622.333 8.66667C622.778 8.22227 621.722 8.27776 621.667 8.33333z"/>
<path style="fill:#bbbab8; stroke:none;" d="M641.667 8.33333C641.222 8.77795 642.278 8.72211 642.333 8.66667C642.778 8.22232 641.722 8.27766 641.667 8.33333z"/>
<path style="fill:#b1b0ab; stroke:none;" d="M647.667 8.33333C647.222 8.77791 648.278 8.7222 648.333 8.66667C648.778 8.22232 647.722 8.27766 647.667 8.33333z"/>
<path style="fill:#b9babe; stroke:none;" d="M667.667 8.33333C667.222 8.77795 668.278 8.72211 668.333 8.66667C668.778 8.22237 667.722 8.27757 667.667 8.33333z"/>
<path style="fill:#b1b0aa; stroke:none;" d="M673.667 8.33333C673.222 8.77791 674.278 8.7222 674.333 8.66667C674.778 8.22223 673.722 8.27771 673.667 8.33333z"/>
<path style="fill:#c1c0bc; stroke:none;" d="M16 9L17 10L16 9z"/>
<path style="fill:#c1bfc1; stroke:none;" d="M25 9L26 10L25 9z"/>
<path style="fill:#c1c0bf; stroke:none;" d="M42 9L43 10L42 9z"/>
<path style="fill:#c1bfc1; stroke:none;" d="M51 9L52 10L51 9M68 9L69 10L68 9z"/>
<path style="fill:#c1c0bf; stroke:none;" d="M77 9L78 10L77 9z"/>
<path style="fill:#c1bfc1; stroke:none;" d="M94 9L95 10L94 9z"/>
<path style="fill:#c1c0bc; stroke:none;" d="M103 9L104 10L103 9M120 9L121 10L120 9z"/>
<path style="fill:#c1bfc1; stroke:none;" d="M129 9L130 10L129 9z"/>
<path style="fill:#c1c0bf; stroke:none;" d="M146 9L147 10L146 9z"/>
<path style="fill:#c1bfc1; stroke:none;" d="M155 9L156 10L155 9M172 9L173 10L172 9z"/>
<path style="fill:#c1c0bf; stroke:none;" d="M181 9L182 10L181 9z"/>
<path style="fill:#c1bfc1; stroke:none;" d="M198 9L199 10L198 9z"/>
<path style="fill:#c1c0bc; stroke:none;" d="M207 9L208 10L207 9M224 9L225 10L224 9z"/>
<path style="fill:#c1bfc1; stroke:none;" d="M233 9L234 10L233 9z"/>
<path style="fill:#c1c0bf; stroke:none;" d="M250 9L251 10L250 9z"/>
<path style="fill:#c1bfc1; stroke:none;" d="M259 9L260 10L259 9M276 9L277 10L276 9z"/>
<path style="fill:#c1c0bf; stroke:none;" d="M285 9L286 10L285 9z"/>
<path style="fill:#c1bfc1; stroke:none;" d="M302 9L303 10L302 9z"/>
<path style="fill:#c1c0bc; stroke:none;" d="M311 9L312 10L311 9M328 9L329 10L328 9z"/>
<path style="fill:#c1bfc1; stroke:none;" d="M337 9L338 10L337 9z"/>
<path style="fill:#c1c0bf; stroke:none;" d="M354 9L355 10L354 9z"/>
<path style="fill:#c1bfc1; stroke:none;" d="M363 9L364 10L363 9M380 9L381 10L380 9z"/>
<path style="fill:#c1c0bf; stroke:none;" d="M389 9L390 10L389 9z"/>
<path style="fill:#c1bfc1; stroke:none;" d="M406 9L407 10L406 9z"/>
<path style="fill:#c1c0bc; stroke:none;" d="M415 9L416 10L415 9M432 9L433 10L432 9z"/>
<path style="fill:#c1bfc1; stroke:none;" d="M441 9L442 10L441 9z"/>
<path style="fill:#c1c0bf; stroke:none;" d="M458 9L459 10L458 9z"/>
<path style="fill:#c1bfc1; stroke:none;" d="M467 9L468 10L467 9M484 9L485 10L484 9z"/>
<path style="fill:#c1c0bf; stroke:none;" d="M493 9L494 10L493 9z"/>
<path style="fill:#c1bfc1; stroke:none;" d="M510 9L511 10L510 9z"/>
<path style="fill:#c1c0bc; stroke:none;" d="M519 9L520 10L519 9M536 9L537 10L536 9z"/>
<path style="fill:#c1bfc1; stroke:none;" d="M545 9L546 10L545 9z"/>
<path style="fill:#c1c0bf; stroke:none;" d="M562 9L563 10L562 9z"/>
<path style="fill:#c1bfc1; stroke:none;" d="M571 9L572 10L571 9M588 9L589 10L588 9z"/>
<path style="fill:#c1c0bf; stroke:none;" d="M597 9L598 10L597 9z"/>
<path style="fill:#c1bfc1; stroke:none;" d="M614 9L615 10L614 9z"/>
<path style="fill:#c1c0bc; stroke:none;" d="M623 9L624 10L623 9M640 9L641 10L640 9z"/>
<path style="fill:#c1bfc1; stroke:none;" d="M649 9L650 10L649 9z"/>
<path style="fill:#c1c0bf; stroke:none;" d="M666 9L667 10L666 9z"/>
<path style="fill:#c1bfc1; stroke:none;" d="M675 9L676 10L675 9z"/>
<path style="fill:#bbb9bb; stroke:none;" d="M15.3333 10.6667C15.2778 10.7222 15.2222 11.7778 15.6667 11.3333C15.7223 11.2777 15.7778 10.2222 15.3333 10.6667z"/>
<path style="fill:#bababe; stroke:none;" d="M26.3333 10.6667C26.2778 10.7222 26.2223 11.7777 26.6667 11.3333C26.7222 11.2778 26.7778 10.2222 26.3333 10.6667z"/>
<path style="fill:#bbbcbf; stroke:none;" d="M41.3333 10.6667C41.2777 10.7223 41.2223 11.7777 41.6667 11.3333C41.7222 11.2778 41.7778 10.2222 41.3333 10.6667z"/>
<path style="fill:#bab8bd; stroke:none;" d="M52.3333 10.6667C52.2777 10.7223 52.2223 11.7777 52.6667 11.3333C52.7222 11.2778 52.7778 10.2222 52.3333 10.6667M67.3333 10.6667C67.2778 10.7222 67.2222 11.7778 67.6667 11.3333C67.7223 11.2777 67.7777 10.2223 67.3333 10.6667z"/>
<path style="fill:#bbbcbf; stroke:none;" d="M78.3333 10.6667C78.2778 10.7222 78.2222 11.7778 78.6667 11.3333C78.7223 11.2777 78.7777 10.2223 78.3333 10.6667z"/>
<path style="fill:#bababe; stroke:none;" d="M93.3333 10.6667C93.2778 10.7222 93.2222 11.7778 93.6667 11.3333C93.7223 11.2777 93.7777 10.2223 93.3333 10.6667z"/>
<path style="fill:#bbb9bb; stroke:none;" d="M104.333 10.6667C104.278 10.7222 104.222 11.7778 104.667 11.3333C104.722 11.2777 104.778 10.2223 104.333 10.6667M119.333 10.6667C119.278 10.7222 119.222 11.7778 119.667 11.3333C119.722 11.2777 119.778 10.2223 119.333 10.6667z"/>
<path style="fill:#bababe; stroke:none;" d="M130.333 10.6667C130.278 10.7222 130.222 11.7778 130.667 11.3333C130.722 11.2777 130.778 10.2223 130.333 10.6667z"/>
<path style="fill:#bbbcbf; stroke:none;" d="M145.333 10.6667C145.278 10.7222 145.222 11.7778 145.667 11.3333C145.722 11.2777 145.778 10.2223 145.333 10.6667z"/>
<path style="fill:#bab8bd; stroke:none;" d="M156.333 10.6667C156.278 10.7222 156.222 11.7778 156.667 11.3333C156.722 11.2778 156.778 10.2222 156.333 10.6667M171.333 10.6667C171.278 10.7222 171.222 11.7778 171.667 11.3333C171.722 11.2777 171.778 10.2223 171.333 10.6667z"/>
<path style="fill:#bbbcbf; stroke:none;" d="M182.333 10.6667C182.278 10.7222 182.222 11.7778 182.667 11.3333C182.722 11.2777 182.778 10.2223 182.333 10.6667z"/>
<path style="fill:#bababe; stroke:none;" d="M197.333 10.6667C197.278 10.7222 197.222 11.7778 197.667 11.3333C197.722 11.2778 197.778 10.2222 197.333 10.6667z"/>
<path style="fill:#bbb9bb; stroke:none;" d="M208.333 10.6667C208.278 10.7222 208.222 11.7778 208.667 11.3333C208.722 11.2778 208.778 10.2223 208.333 10.6667M223.333 10.6667C223.278 10.7222 223.222 11.7778 223.667 11.3333C223.722 11.2777 223.778 10.2223 223.333 10.6667z"/>
<path style="fill:#bababe; stroke:none;" d="M234.333 10.6667C234.278 10.7222 234.222 11.7778 234.667 11.3333C234.722 11.2777 234.778 10.2223 234.333 10.6667z"/>
<path style="fill:#bbbcbf; stroke:none;" d="M249.333 10.6667C249.278 10.7222 249.222 11.7778 249.667 11.3333C249.722 11.2777 249.778 10.2223 249.333 10.6667z"/>
<path style="fill:#bab8bd; stroke:none;" d="M260.333 10.6667C260.278 10.7223 260.222 11.7777 260.667 11.3333C260.722 11.2778 260.778 10.2222 260.333 10.6667M275.333 10.6667C275.278 10.7223 275.222 11.7777 275.667 11.3333C275.722 11.2778 275.778 10.2222 275.333 10.6667z"/>
<path style="fill:#bbbcbf; stroke:none;" d="M286.333 10.6667C286.278 10.7223 286.222 11.7777 286.667 11.3333C286.722 11.2778 286.778 10.2222 286.333 10.6667z"/>
<path style="fill:#bababe; stroke:none;" d="M301.333 10.6667C301.278 10.7223 301.222 11.7777 301.667 11.3333C301.722 11.2778 301.778 10.2222 301.333 10.6667z"/>
<path style="fill:#bbb9bb; stroke:none;" d="M312.333 10.6667C312.278 10.7223 312.222 11.7777 312.667 11.3333C312.722 11.2778 312.778 10.2222 312.333 10.6667M327.333 10.6667C327.278 10.7223 327.222 11.7777 327.667 11.3333C327.722 11.2778 327.778 10.2222 327.333 10.6667z"/>
<path style="fill:#bababe; stroke:none;" d="M338.333 10.6667C338.278 10.7223 338.222 11.7777 338.667 11.3333C338.722 11.2778 338.778 10.2222 338.333 10.6667z"/>
<path style="fill:#bbbcbf; stroke:none;" d="M353.333 10.6667C353.278 10.7223 353.222 11.7777 353.667 11.3333C353.722 11.2779 353.778 10.2222 353.333 10.6667z"/>
<path style="fill:#bab8bd; stroke:none;" d="M364.333 10.6667C364.278 10.7223 364.222 11.7777 364.667 11.3333C364.722 11.2778 364.778 10.2222 364.333 10.6667M379.333 10.6667C379.278 10.7223 379.222 11.7777 379.667 11.3333C379.722 11.2778 379.778 10.2222 379.333 10.6667z"/>
<path style="fill:#bbbcbf; stroke:none;" d="M390.333 10.6667C390.278 10.7223 390.222 11.7777 390.667 11.3333C390.722 11.2779 390.778 10.2222 390.333 10.6667z"/>
<path style="fill:#bababe; stroke:none;" d="M405.333 10.6667C405.278 10.7223 405.222 11.7777 405.667 11.3333C405.722 11.2778 405.778 10.2222 405.333 10.6667z"/>
<path style="fill:#bbb9bb; stroke:none;" d="M416.333 10.6667C416.278 10.7224 416.222 11.7776 416.667 11.3333C416.722 11.2779 416.778 10.2222 416.333 10.6667M431.333 10.6667C431.278 10.7223 431.222 11.7777 431.667 11.3333C431.722 11.2778 431.778 10.2222 431.333 10.6667z"/>
<path style="fill:#bababe; stroke:none;" d="M442.333 10.6667C442.278 10.7223 442.222 11.7777 442.667 11.3333C442.722 11.2779 442.778 10.2222 442.333 10.6667z"/>
<path style="fill:#bbbcbf; stroke:none;" d="M457.333 10.6667C457.278 10.7223 457.222 11.7777 457.667 11.3333C457.722 11.2778 457.778 10.2222 457.333 10.6667z"/>
<path style="fill:#bab8bd; stroke:none;" d="M468.333 10.6667C468.278 10.7223 468.222 11.7777 468.667 11.3333C468.722 11.2778 468.778 10.2222 468.333 10.6667M483.333 10.6667C483.278 10.7223 483.222 11.7777 483.667 11.3333C483.722 11.2779 483.778 10.2222 483.333 10.6667z"/>
<path style="fill:#bbbcbf; stroke:none;" d="M494.333 10.6667C494.278 10.7223 494.222 11.7777 494.667 11.3333C494.722 11.278 494.778 10.2221 494.333 10.6667z"/>
<path style="fill:#bababe; stroke:none;" d="M509.333 10.6667C509.278 10.7224 509.222 11.7776 509.667 11.3333C509.722 11.2778 509.778 10.2222 509.333 10.6667z"/>
<path style="fill:#bbb9bb; stroke:none;" d="M520.333 10.6667C520.278 10.7221 520.222 11.7779 520.667 11.3333C520.722 11.2777 520.778 10.2222 520.333 10.6667M535.333 10.6667C535.278 10.7222 535.222 11.7777 535.667 11.3333C535.722 11.2776 535.778 10.2223 535.333 10.6667z"/>
<path style="fill:#bababe; stroke:none;" d="M546.333 10.6667C546.278 10.7221 546.222 11.7778 546.667 11.3333C546.722 11.2777 546.778 10.2222 546.333 10.6667z"/>
<path style="fill:#bbbcbf; stroke:none;" d="M561.333 10.6667C561.278 10.7221 561.222 11.7779 561.667 11.3333C561.722 11.2777 561.778 10.2222 561.333 10.6667z"/>
<path style="fill:#bab8bd; stroke:none;" d="M572.333 10.6667C572.278 10.7221 572.222 11.7778 572.667 11.3333C572.722 11.2777 572.778 10.2222 572.333 10.6667M587.333 10.6667C587.278 10.7221 587.222 11.7778 587.667 11.3333C587.722 11.2777 587.778 10.2222 587.333 10.6667z"/>
<path style="fill:#bbbcbf; stroke:none;" d="M598.333 10.6667C598.278 10.7221 598.222 11.7778 598.667 11.3333C598.722 11.2776 598.778 10.2223 598.333 10.6667z"/>
<path style="fill:#bababe; stroke:none;" d="M613.333 10.6667C613.278 10.7221 613.222 11.7778 613.667 11.3333C613.722 11.2777 613.778 10.2222 613.333 10.6667z"/>
<path style="fill:#bbb9bb; stroke:none;" d="M624.333 10.6667C624.278 10.7221 624.222 11.7778 624.667 11.3333C624.722 11.2777 624.778 10.2222 624.333 10.6667M639.333 10.6667C639.278 10.7221 639.222 11.7778 639.667 11.3333C639.722 11.2777 639.778 10.2222 639.333 10.6667z"/>
<path style="fill:#bababe; stroke:none;" d="M650.333 10.6667C650.278 10.7221 650.222 11.7778 650.667 11.3333C650.722 11.2777 650.778 10.2222 650.333 10.6667z"/>
<path style="fill:#bbbcbf; stroke:none;" d="M665.333 10.6667C665.278 10.7221 665.222 11.7778 665.667 11.3333C665.722 11.2777 665.778 10.2222 665.333 10.6667z"/>
<path style="fill:#bab8bd; stroke:none;" d="M676.333 10.6667C676.278 10.7221 676.222 11.7778 676.667 11.3333C676.722 11.2777 676.778 10.2222 676.333 10.6667z"/>
<path style="fill:#c0c0c0; stroke:none;" d="M27 12C29.755 15.1528 38.245 15.1528 41 12C36.1897 13.1452 31.8103 13.1452 27 12M53 12C55.755 15.1528 64.245 15.1528 67 12C62.1897 13.1452 57.8103 13.1452 53 12M79 12C81.755 15.1528 90.245 15.1528 93 12C88.1897 13.1452 83.8103 13.1452 79 12z"/>
<path style="fill:#bfc1c0; stroke:none;" d="M105 12C107.755 15.1528 116.245 15.1528 119 12C114.19 13.1452 109.81 13.1452 105 12z"/>
<path style="fill:#c0c0c0; stroke:none;" d="M131 12C133.755 15.1528 142.245 15.1528 145 12C140.19 13.1452 135.81 13.1452 131 12M157 12C159.755 15.1528 168.245 15.1528 171 12C166.19 13.1452 161.81 13.1452 157 12M183 12C185.755 15.1528 194.245 15.1528 197 12C192.19 13.1452 187.81 13.1452 183 12z"/>
<path style="fill:#bfc1c0; stroke:none;" d="M209 12C211.755 15.1528 220.245 15.1528 223 12C218.19 13.1452 213.81 13.1452 209 12z"/>
<path style="fill:#c0c0c0; stroke:none;" d="M235 12C237.755 15.1528 246.245 15.1528 249 12C244.19 13.1452 239.81 13.1452 235 12M261 12C263.755 15.1528 272.245 15.1528 275 12C270.19 13.1452 265.81 13.1452 261 12M287 12C289.755 15.1528 298.245 15.1528 301 12C296.19 13.1452 291.81 13.1452 287 12z"/>
<path style="fill:#bfc1c0; stroke:none;" d="M313 12C315.755 15.1528 324.245 15.1528 327 12C322.19 13.1452 317.81 13.1452 313 12z"/>
<path style="fill:#c0c0c0; stroke:none;" d="M339 12C341.755 15.1528 350.245 15.1528 353 12C348.19 13.1452 343.81 13.1452 339 12M365 12C367.755 15.1528 376.245 15.1528 379 12C374.19 13.1452 369.81 13.1452 365 12M391 12C393.755 15.1528 402.245 15.1528 405 12C400.19 13.1452 395.81 13.1452 391 12z"/>
<path style="fill:#bfc1c0; stroke:none;" d="M417 12C419.755 15.1528 428.245 15.1528 431 12C426.19 13.1452 421.81 13.1452 417 12z"/>
<path style="fill:#c0c0c0; stroke:none;" d="M443 12C445.755 15.1528 454.245 15.1528 457 12C452.19 13.1452 447.81 13.1452 443 12M469 12C471.755 15.1527 480.245 15.1528 483 12C478.19 13.1452 473.81 13.1452 469 12M495 12C497.755 15.1528 506.245 15.1528 509 12C504.19 13.1452 499.81 13.1452 495 12z"/>
<path style="fill:#bfc1c0; stroke:none;" d="M521 12C523.755 15.1528 532.245 15.1528 535 12C530.19 13.1452 525.81 13.1452 521 12z"/>
<path style="fill:#c0c0c0; stroke:none;" d="M547 12C549.755 15.1528 558.245 15.1528 561 12C556.19 13.1452 551.81 13.1452 547 12M573 12C575.755 15.1528 584.245 15.1528 587 12C582.19 13.1452 577.81 13.1452 573 12M599 12C601.755 15.1528 610.245 15.1527 613 12C608.19 13.1452 603.81 13.1452 599 12z"/>
<path style="fill:#bfc1c0; stroke:none;" d="M625 12C627.755 15.1527 636.245 15.1528 639 12C634.19 13.1452 629.81 13.1452 625 12z"/>
<path style="fill:#c0c0c0; stroke:none;" d="M651 12C653.755 15.1528 662.245 15.1528 665 12C660.19 13.1452 655.81 13.1452 651 12z"/>
<path style="fill:#eeeeee; stroke:none;" d="M1 14L1 145C19.3907 149.22 19.3679 170.785 1 175L1 214C2.66111 210.041 2 205.26 2 201L2 176C21.5045 173.989 21.5044 146.011 2 144L2 53L2 27C2 22.7397 2.6611 17.9586 1 14M690 15L690 144C670.416 146.019 670.416 174.981 690 177C690 190.649 690.712 204.456 689 218C691.796 214.309 691 209.485 691 205L691 176C682.871 174.135 674.387 166.183 677.059 157C678.133 153.309 680.808 150.048 684.015 148.005C686.465 146.443 689.766 145.991 690.682 142.856C693.117 134.522 691 122.679 691 114L691 50L691 27C691 23.0172 691.552 18.6986 690 15M31 159L31 161L35 161L35 159L31 159M39 159L39 161L43 161L43 159L39 159M47 159L47 161L51 161L51 159L47 159M55 159L55 161L59 161L59 159L55 159M63 159L63 161L67 161L67 159L63 159M71 159L71 161L75 161L75 159L71 159M79 159L79 161L83 161L83 159L79 159M87 159L87 161L91 161L91 159L87 159M95 159L95 161L99 161L99 159L95 159M103 159L103 161L107 161L107 159L103 159M111 159L111 161L115 161L115 159L111 159M119 159L119 161L123 161L123 159L119 159M127 159L127 161L131 161L131 159L127 159M135 159L135 161L139 161L139 159L135 159M143 159L143 161L147 161L147 159L143 159M151 159L151 161L155 161L155 159L151 159M159 159L159 161L163 161L163 159L159 159M167 159L167 161L171 161L171 159L167 159M175 159L175 161L179 161L179 159L175 159M183 159L183 161L187 161L187 159L183 159M191 159L191 161L195 161L195 159L191 159M199 159L199 161L203 161L203 159L199 159M207 159L207 161L211 161L211 159L207 159M215 159L215 161L219 161L219 159L215 159M223 159L223 161L227 161L227 159L223 159M231 159L231 161L235 161L235 159L231 159M239 159L239 161L243 161L243 159L239 159M247 159L247 161L251 161L251 159L247 159M255 159L255 161L259 161L259 159L255 159M263 159L263 161L267 161L267 159L263 159M271 159L271 161L275 161L275 159L271 159M279 159L279 161L283 161L283 159L279 159M287 159L287 161L291 161L291 159L287 159M295 159L295 161L299 161L299 159L295 159M303 159L303 161L307 161L307 159L303 159M311 159L311 161L315 161L315 159L311 159M319 159L319 161L323 161L323 159L319 159M327 159L327 161L331 161L331 159L327 159M335 159L335 161L339 161L339 159L335 159M343 159L343 161L347 161L347 159L343 159M351 159L351 161L355 161L355 159L351 159M359 159L359 161L363 161L363 159L359 159M367 159L367 161L371 161L371 159L367 159M375 159L375 161L379 161L379 159L375 159M383 159L383 161L387 161L387 159L383 159M391 159L391 161L395 161L395 159L391 159M399 159L399 161L403 161L403 159L399 159M407 159L407 161L411 161L411 159L407 159M415 159L415 161L419 161L419 159L415 159M423 159L423 161L427 161L427 159L423 159M431 159L431 161L435 161L435 159L431 159M439 159L439 161L443 161L443 159L439 159M447 159L447 161L451 161L451 159L447 159M455 159L455 161L459 161L459 159L455 159M463 159L463 161L467 161L467 159L463 159M471 159L471 161L475 161L475 159L471 159M479 159L479 161L483 161L483 159L479 159M487 159L487 161L491 161L491 159L487 159M495 159L495 161L499 161L499 159L495 159M503 159L503 161L507 161L507 159L503 159M511 159L511 161L515 161L515 159L511 159M519 159L519 161L523 161L523 159L519 159M527 159L527 161L531 161L531 159L527 159M535 159L535 161L539 161L539 159L535 159M543 159L543 161L547 161L547 159L543 159M551 159L551 161L555 161L555 159L551 159M559 159L559 161L563 161L563 159L559 159M567 159L567 161L571 161L571 159L567 159M575 159L575 161L579 161L579 159L575 159M583 159L583 161L587 161L587 159L583 159M591 159L591 161L595 161L595 159L591 159M599 159L599 161L603 161L603 159L599 159M607 159L607 161L611 161L611 159L607 159M615 159L615 161L619 161L619 159L615 159M623 159L623 161L627 161L627 159L623 159M631 159L631 161L635 161L635 159L631 159M639 159L639 161L643 161L643 159L639 159M647 159L647 161L651 161L651 159L647 159M655 159L655 161L659 161L659 159L655 159M4 219C7.88789 221.945 13.2843 221 18 221L49 221L171 221L528 221L637 221L669 221C675.239 221 681.988 221.777 688 220C683.27 218.304 676.146 220 671 220L630 220L494 220L175 220L71 220C48.6807 220 26.2241 220.754 4 219z"/>
</svg>
