<?xml version="1.0" standalone="no"?><!DOCTYPE svg PUBLIC "-//W3C//DTD SVG 1.1//EN" "http://www.w3.org/Graphics/SVG/1.1/DTD/svg11.dtd"><svg t="1522688090905" class="icon" style="" viewBox="0 0 1024 1024" version="1.1" xmlns="http://www.w3.org/2000/svg" p-id="1811" xmlns:xlink="http://www.w3.org/1999/xlink" width="200" height="200"><defs><style type="text/css"></style></defs><path d="M876.2 406.03333334H311.8l-31.6-59.8c11.7-12 18.9-28.4 18.9-46.4 0-8.7-1.7-17-4.8-24.7l97.8-55.5-1.2 59c-0.1 6.6 3 12.9 8.4 16.7 3.4 2.4 7.5 3.7 11.6 3.7 2.3 0 4.7-0.4 7-1.3l144.7-53.8c6.2-2.3 10.9-7.5 12.5-14 1.6-6.4-0.1-13.2-4.5-18.2L489.1 121.33333334c-13.1-14.6-29.2-22.6-45.4-22.6-14.3 0-27.2 6.2-36.5 17.4-8.7 10.5-13.4 24.6-13.8 40.8l-0.3 16.3-124.6 70.7c-10.4-6.7-22.8-10.6-36.1-10.6-36.7 0-66.6 29.9-66.6 66.6s29.9 66.6 66.6 66.6c4.3 0 8.5-0.4 12.6-1.2l21.5 40.7H147.9c-5.3 0-10.4 2.1-14.1 5.9s-5.9 8.8-5.9 14.1v383c0 11 9 20 20 20s20-9 20-20V560.23333334h385.8v248.9c0 11 9 20 20 20H876c11 0 20-9 20-20v-383c0.2-11.2-8.8-20.1-19.8-20.1zM433.4 157.73333334c0.2-9.5 3.4-19 10.2-19 4.5 0 10.4 3.5 15.7 9.4l61.8 68.7-89.5 33.3 1.8-92.4zM205.8 299.83333334c0-14.7 12-26.6 26.6-26.6s26.6 12 26.6 26.6-12 26.6-26.6 26.6-26.6-11.9-26.6-26.6z m650.4 220.4H593.8v-74.2h262.3v74.2z m-688.2 0v-74.2h385.7v74.2H168z m688.2 40v98.6H593.8v-98.6h262.4zM593.8 789.03333334v-90.2h262.3v90.2H593.8z" fill="#797979" p-id="1812"></path><path d="M691.8 466.93333334h64.5v40h-64.5zM691.8 599.53333334h64.5v40h-64.5zM691.8 732.23333334h64.5v40h-64.5z" fill="#797979" p-id="1813"></path></svg>