<?xml version="1.0" standalone="no"?><!DOCTYPE svg PUBLIC "-//W3C//DTD SVG 1.1//EN" "http://www.w3.org/Graphics/SVG/1.1/DTD/svg11.dtd"><svg t="1522693323481" class="icon" style="" viewBox="0 0 1024 1024" version="1.1" xmlns="http://www.w3.org/2000/svg" p-id="16347" xmlns:xlink="http://www.w3.org/1999/xlink" width="200" height="200"><defs><style type="text/css"></style></defs><path d="M934.189531 238.132562 81.858356 238.132562c-6.985088 0-12.701277 5.715165-12.701277 12.701277l0 45.36214c0 6.985088 5.715165 12.701277 12.701277 12.701277l54.082756 0 0 434.456926c0 6.986111 5.715165 12.701277 12.701277 12.701277l28.66076 0c6.986111 0 12.701277-5.715165 12.701277-12.701277l0-49.154513 218.049155 0c6.986111 0 12.701277-5.715165 12.701277-12.701277L420.754856 354.720907c0-6.985088-5.715165-12.701277-12.701277-12.701277L190.004425 342.019631l0-33.122375 650.295739 0 0 434.456926c0 6.986111 5.715165 12.701277 12.701277 12.701277l28.66076 0c6.985088 0 12.701277-5.715165 12.701277-12.701277L894.363478 308.896232l39.826054 0c6.985088 0 12.701277-5.715165 12.701277-12.701277l0-45.36214C946.890808 243.847727 941.17462 238.132562 934.189531 238.132562zM205.112518 451.244264l177.591721 0 0 23.25668L205.112518 474.500944 205.112518 451.244264zM205.112518 551.554878l177.591721 0 0 23.25668L205.112518 574.811558 205.112518 551.554878z" p-id="16348" fill="#797979"></path><path d="M794.493909 335.175759 499.225045 335.175759c-6.986111 0-12.701277 5.715165-12.701277 12.701277l0 116.354008c0 6.985088 5.715165 12.701277 12.701277 12.701277l295.268864 0c6.985088 0 12.701277-5.715165 12.701277-12.701277L807.195186 347.877035C807.195186 340.890924 801.478997 335.175759 794.493909 335.175759zM654.66014 419.564751 639.058814 419.564751l-7.800663-13.510712 7.800663-13.510712 15.601326 0 7.800663 13.510712L654.66014 419.564751z" p-id="16349" fill="#797979"></path></svg>