<?xml version="1.0" standalone="no"?><!DOCTYPE svg PUBLIC "-//W3C//DTD SVG 1.1//EN" "http://www.w3.org/Graphics/SVG/1.1/DTD/svg11.dtd"><svg t="1522690226696" class="icon" style="" viewBox="0 0 1024 1024" version="1.1" xmlns="http://www.w3.org/2000/svg" p-id="5071" xmlns:xlink="http://www.w3.org/1999/xlink" width="200" height="200"><defs><style type="text/css"></style></defs><path d="M137.48 824.07a57 57 0 0 1-56.94-56.94V258.65a57 57 0 0 1 56.94-56.94h568.94a39.91 39.91 0 0 0 0-79.82H137.48C62.08 121.89 0.74 183.24 0.74 258.65v508.47c0 75.41 61.34 136.76 136.74 136.76a39.91 39.91 0 0 0 0-79.82z m557.14-387a39.91 39.91 0 0 0 1.66 56.42l20.56 19.39-20.56 19.39A39.91 39.91 0 1 0 751 590.35l24-22.62 24 22.62a39.91 39.91 0 0 0 54.75-58.08l-20.56-19.39 20.56-19.39A39.91 39.91 0 1 0 799 435.42L775 458l-24-22.61a39.9 39.9 0 0 0-56.38 1.69zM888 121.89a39.91 39.91 0 0 0 0 79.82 57 57 0 0 1 56.94 56.94v508.47A57 57 0 0 1 888 824.07H319.06a39.91 39.91 0 0 0 0 79.82H888c75.4 0 136.74-61.35 136.74-136.76V258.65c0-75.41-61.34-136.76-136.74-136.76zM593.13 437.08a39.9 39.9 0 0 0-56.41-1.66l-24 22.61-24-22.61A39.91 39.91 0 0 0 434 493.5l20.56 19.39L434 532.27a39.91 39.91 0 1 0 54.75 58.08l24-22.61 24 22.61a39.91 39.91 0 0 0 54.75-58.08l-20.56-19.39 20.56-19.39a39.91 39.91 0 0 0 1.63-56.41zM330.86 588.69a39.91 39.91 0 0 0-1.66-56.42l-20.56-19.39 20.56-19.38a39.91 39.91 0 0 0-54.75-58.08l-24 22.61-24-22.61a39.91 39.91 0 0 0-54.75 58.08l20.56 19.39-20.56 19.39a39.91 39.91 0 1 0 54.75 58.08l24-22.61 24 22.61a39.9 39.9 0 0 0 56.41-1.66z" p-id="5072" fill="#797979"></path></svg>