<?xml version="1.0" standalone="no"?><!DOCTYPE svg PUBLIC "-//W3C//DTD SVG 1.1//EN" "http://www.w3.org/Graphics/SVG/1.1/DTD/svg11.dtd"><svg t="1522688079434" class="icon" style="" viewBox="0 0 1024 1024" version="1.1" xmlns="http://www.w3.org/2000/svg" p-id="1634" xmlns:xlink="http://www.w3.org/1999/xlink" width="200" height="200"><defs><style type="text/css"></style></defs><path d="M921.81333333 642.52444444c0-0.64 0.10666667-1.17333333 0.10666667-1.81333334 0-3.73333333-0.96-7.36-2.77333333-10.34666666l-90.66666667-180.16V237.29777777c0-11.73333333-9.6-21.33333333-21.44-21.33333333H217.49333333c-11.84 0-21.44 9.6-21.44 21.33333333v212.26666667L104.53333333 631.21777777c-1.81333333 3.73333333-2.56 7.78666667-2.13333333 11.73333333v123.94666667c0 0.42666667 0 0.85333333 0.10666667 1.17333333 0 0.42666667-0.10666667 0.85333333-0.10666667 1.17333334v56.42666666c0 11.73333333 9.6 21.33333333 21.44 21.33333334h105.81333333c11.84 0 21.44-9.6 21.44-21.33333334v-37.54666666h521.81333334v37.54666666c0 11.73333333 9.6 21.33333333 21.44 21.33333334H900.26666667c11.84 0 21.44-9.6 21.44-21.33333334v-56.42666666c0-0.42666667 0-0.85333333-0.10666667-1.17333334 0-0.42666667 0.10666667-0.85333333 0.10666667-1.17333333V642.52444444z m-776.21333333 103.04V662.04444444h733.12v83.52H145.6z m628.16-308.37333334c-7.14666667-32.96-36.48-57.70666667-71.57333333-57.70666666H593.17333333c-34.98666667 0-64.42666667 24.74666667-71.57333333 57.70666666h-18.88c-7.14666667-32.96-36.48-57.70666667-71.57333333-57.70666666H322.24c-34.98666667 0-64.42666667 24.74666667-71.57333333 57.70666666h-11.73333334V329.0311111h546.56v108.16h-11.73333333zM732.8 452.76444444v2.77333333c0 16.85333333-13.76 30.61333333-30.61333333 30.61333333H593.17333333c-16.85333333 0-30.61333333-13.76-30.61333333-30.61333333v-2.77333333c0-16.85333333 13.76-30.61333333 30.61333333-30.61333334h109.01333334c16.85333333 0.10666667 30.61333333 13.76 30.61333333 30.61333334z m-271.04 0v2.77333333c0 16.85333333-13.76 30.61333333-30.61333333 30.61333333H322.24c-16.85333333 0-30.61333333-13.76-30.61333333-30.61333333v-2.77333333c0-16.85333333 13.76-30.61333333 30.61333333-30.61333334h109.01333333c16.85333333 0.10666667 30.50666667 13.76 30.50666667 30.61333334zM238.93333333 258.6311111h546.56v27.73333334H238.93333333v-27.73333334z m-10.02666666 221.22666667h24.21333333c10.02666667 28.48 37.22666667 48.96 69.12 48.96h109.01333333c31.89333333 0 59.09333333-20.48 69.12-48.96h23.78666667c10.02666667 28.48 37.22666667 48.96 69.12 48.96h109.01333333c31.89333333 0 59.09333333-20.48 69.12-48.96h23.89333334L865.49333333 619.37777777H158.72l70.18666667-139.52z m-20.58666667 324.58666667h-62.93333333v-13.76h62.93333333v13.76z m670.50666667 0h-63.04v-13.76h63.04v13.76z" fill="#797979" p-id="1635"></path></svg>