<?xml version="1.0" standalone="no"?><!DOCTYPE svg PUBLIC "-//W3C//DTD SVG 1.1//EN" "http://www.w3.org/Graphics/SVG/1.1/DTD/svg11.dtd"><svg t="1522690854382" class="icon" style="" viewBox="0 0 1024 1024" version="1.1" xmlns="http://www.w3.org/2000/svg" p-id="11251" xmlns:xlink="http://www.w3.org/1999/xlink" width="200" height="200"><defs><style type="text/css"></style></defs><path d="M779.997242 623.687732c0.785899 90.642416-90.51041 111.666242-90.51041 111.666242L333.114308 735.353974c0 0-89.769536-1.482771-89.115644-67.042929 0.697895-65.649186 89.115644-67.000973 89.115644-67.000973l311.836191 0 0 44.623313L333.114308 645.933385c0 0-45.277206 1.394766-44.579311 22.376637 0.785899 22.288632 44.579311 22.288632 44.579311 22.288632L689.486832 690.598654c0 0 44.579311-13.914918 45.975101-69.74855 1.352811-52.998051-45.975101-64.208371-45.975101-64.208371L243.998665 556.641733l0-44.62229L689.486832 512.019443C689.486832 512.020466 779.082406 523.186783 779.997242 623.687732zM958.70846 244.020666l0 535.9996c0 98.581226-80.000032 178.667216-178.711218 178.667216L243.998665 958.687482c-98.711186 0-178.709171-80.08599-178.709171-178.667216L65.289494 244.020666c0-98.755188 79.997985-178.709171 178.709171-178.709171l535.998577 0C878.708428 65.311495 958.70846 145.265478 958.70846 244.020666zM869.286848 288.643979c0-73.979922-59.932997-134.042879-133.954875-134.042879L288.623002 154.6011c-73.979922 0-133.912919 60.062957-133.912919 134.042879l0 446.709995c0 73.979922 59.932997 133.956921 133.912919 133.956921l446.708971 0c74.021877 0 133.954875-59.977 133.954875-133.956921L869.286848 288.643979zM242.645854 355.686908c-0.783853 90.642416 90.642416 111.666242 90.642416 111.666242l357.419366 0c0 0 89.944522-1.482771 89.289606-66.998927-0.697895-65.691141-89.289606-67.044976-89.289606-67.044976L378.042567 333.309248l0 44.623313 312.666092 0c0 0 45.321208 1.394766 44.623313 22.420639-0.785899 22.24463-44.623313 22.24463-44.623313 22.24463L333.288271 422.597831c0 0-44.665269-13.914918-46.019103-69.746504-1.350764-52.998051 46.019103-64.208371 46.019103-64.208371l446.708971 0L779.997242 244.020666 333.288271 244.020666C333.288271 244.020666 243.519758 255.101026 242.645854 355.686908z" p-id="11252" fill="#797979"></path></svg>