<?xml version="1.0" standalone="no"?><!DOCTYPE svg PUBLIC "-//W3C//DTD SVG 1.1//EN" "http://www.w3.org/Graphics/SVG/1.1/DTD/svg11.dtd"><svg t="1522691298429" class="icon" style="" viewBox="0 0 1024 1024" version="1.1" xmlns="http://www.w3.org/2000/svg" p-id="13076" xmlns:xlink="http://www.w3.org/1999/xlink" width="200" height="200"><defs><style type="text/css"></style></defs><path d="M402.80064 11.58144c-16.41472 5.18144-33.25952 19.8656-40.81664 35.6352-2.59072 5.82656-4.9664 16.62976-5.82656 26.99264l-1.51552 17.27488-71.4752 0.64512c-62.84288 0.64512-72.56064 1.0752-79.90272 4.53632-13.38368 6.0416-25.69216 17.27488-32.60416 29.7984l-6.48192 11.66336-1.0752 46.42816-1.0752 46.42816-47.50336 1.0752c-47.07328 1.0752-47.50336 1.0752-57.66144 6.912-21.38112 12.73856-33.03424 35.40992-31.52896 61.32736l1.0752 15.54432 66.73408 114.01216 66.72384 114.23744 1.0752 210.54464 1.0752 210.54464 4.75136 9.71776c7.77216 15.54432 17.05984 25.04704 31.31392 32.17408l13.16864 6.69696h572.68224l11.23328-5.18144c13.81376-6.48192 26.34752-18.7904 32.8192-32.60416l4.9664-10.57792V683.60192l58.73664-0.64512 58.5216-0.64512 12.30848-6.0416c6.912-3.46112 16.19968-10.36288 20.95104-15.7696 15.9744-18.35008 15.32928-9.07264 15.32928-204.92288V280.23808l-6.69696-13.16864c-6.69696-13.60896-16.41472-23.32672-30.01344-30.01344-6.48192-3.45088-15.98464-4.10624-66.93888-4.9664l-59.38176-1.0752-1.0752-46.42816c-0.86016-39.08608-1.73056-47.72864-4.9664-54.20032-6.69696-13.38368-18.35008-25.04704-31.31392-31.52896l-12.30848-6.0416-71.4752-0.64512-71.69024-0.64512-0.86016-16.62976c-0.64512-10.14784-2.80576-20.51072-5.39648-26.56256-5.39648-12.09344-18.56512-25.91744-31.31392-32.60416-9.28768-4.9664-9.71776-4.9664-103.2192-5.39648-51.63008-0.26624-96.32768 0.37888-99.34848 1.24928z m195.86048 41.89184c6.0416 5.82656 6.0416 6.0416 6.69696 40.38656l0.86016 34.33472 88.75008 0.64512c95.66208 0.64512 95.44704 0.64512 100.62848 11.8784 1.50528 3.23584 2.37568 22.24128 2.37568 48.15872v43.19232H199.81312v-88.53504l6.26688-6.912 6.26688-7.12704 90.91072-0.64512 90.91072-0.64512V94.30016c0-36.28032 1.30048-41.6768 11.66336-45.78304 2.37568-1.0752 45.568-1.73056 95.66208-1.51552l91.3408 0.43008 5.82656 6.0416z m357.16096 221.55264l6.26688 6.26688v174.03904c0 118.9888-0.64512 175.34976-2.37568 179.01568-4.9664 11.008-6.05184 11.22304-87.67488 11.8784l-76.22656 0.64512v191.96928H199.81312V539.97568l-69.31456-118.97856C52.75648 288.19456 52.75648 288.19456 65.49504 275.24096l6.48192-6.48192h877.58848l6.25664 6.26688z m-160.01024 645.0176v44.48256l-6.26688 6.25664-6.26688 6.26688H212.33664l-6.26688-6.26688-6.26688-6.25664v-88.96512h595.98848v44.48256z" p-id="13077" fill="#797979"></path><path d="M854.1184 456.63232v125.24544h36.70016l-0.43008-124.81536-0.64512-124.60032-17.70496-0.64512-17.92-0.64512v125.46048zM415.10912 371.11808c-12.09344 4.53632-22.24128 13.16864-27.20768 23.54176-4.53632 9.28768-4.53632 11.44832-4.53632 158.93504 0 142.73536 0.21504 149.64736 4.10624 157.41952 4.75136 9.28768 13.60896 17.92 23.32672 22.8864 6.0416 3.0208 17.48992 3.46112 87.45984 3.46112 90.05056 0 91.55584-0.43008 104.07936-15.32928 12.52352-14.68416 12.09344-9.07264 12.09344-168.21248 0-161.95584 0.43008-155.47392-13.60896-170.15808-14.03904-14.68416-11.66336-14.46912-98.68288-14.8992-62.4128-0.45056-80.55808-0.02048-87.02976 2.3552z m162.60096 182.69184v146.8416H420.07552v-293.6832h157.63456v146.8416z" p-id="13078" fill="#797979"></path></svg>