<?xml version="1.0" standalone="no"?><!DOCTYPE svg PUBLIC "-//W3C//DTD SVG 1.1//EN" "http://www.w3.org/Graphics/SVG/1.1/DTD/svg11.dtd"><svg t="1522688056133" class="icon" style="" viewBox="0 0 1024 1024" version="1.1" xmlns="http://www.w3.org/2000/svg" p-id="1457" xmlns:xlink="http://www.w3.org/1999/xlink" width="200" height="200"><defs><style type="text/css"></style></defs><path d="M798.3104 512.3072h-26.692267v-97.109333c21.504-37.000533 33.006933-79.086933 33.006934-123.0848V222.0032h59.392V128h-246.510934c0.3072-2.286933 0.512-4.7104 0.512-7.099733 0-31.300267-25.3952-56.695467-56.695466-56.695467h-98.6112c-31.300267 0-56.695467 25.3952-56.695467 56.695467 0 2.389333 0.2048 4.8128 0.512 7.099733H159.812267v94.0032h59.392v70.212267c0 43.895467 11.502933 86.084267 33.006933 123.0848v97.109333h-26.385067c-36.283733 0-65.911467 28.603733-65.911466 63.7952 0 35.191467 29.4912 63.7952 65.911466 63.7952H247.125333c7.509333 68.7104 51.985067 126.395733 113.186134 152.712533l-37.307734 166.912h377.992534l-37.307734-167.0144c61.098667-26.385067 105.506133-84.002133 113.015467-152.610133h21.6064c36.283733 0 65.911467-28.603733 65.911467-63.7952-0.034133-35.191467-29.627733-63.8976-65.911467-63.8976z m-145.7152 0h-281.3952V421.888c0-77.585067 63.112533-140.6976 140.6976-140.6976 77.585067 0 140.6976 63.112533 140.6976 140.6976v90.4192zM764.586667 292.215467c0 14.301867-1.501867 28.194133-4.1984 41.710933-12.288-40.209067-34.2016-76.9024-64.785067-107.485867-1.501867-1.501867-3.003733-2.901333-4.5056-4.3008H764.586667v70.075734z m59.426133-110.216534h-187.4944c-9.693867-5.290667-19.694933-10.001067-30.0032-13.994666h217.4976v13.994666z m-378.129067-61.098666c0-9.216 7.509333-16.6912 16.6912-16.6912h98.6112c9.216 0 16.6912 7.509333 16.6912 16.6912 0 2.491733-0.6144 4.9152-1.604266 7.099733H447.488c-0.989867-2.184533-1.604267-4.608-1.604267-7.099733z m-246.0672 47.104h217.4976c-10.308267 3.9936-20.309333 8.704-30.0032 13.994666H199.816533v-13.994666z m132.881067 53.998933c-1.501867 1.399467-3.003733 2.901333-4.5056 4.3008-30.5152 30.5152-52.497067 67.310933-64.785067 107.485867-2.798933-13.5168-4.1984-27.409067-4.1984-41.710934V222.0032h73.489067z m-40.482133 188.0064c0-121.105067 98.5088-219.716267 219.716266-219.716267s219.716267 98.5088 219.716267 219.716267v102.4h-39.0144v-90.385067c0-99.601067-81.1008-180.701867-180.701867-180.701866s-180.701867 81.1008-180.701866 180.701866v90.385067H292.215467v-102.4z m358.877866 509.576533h-278.084266l25.7024-114.9952c11.707733 2.286933 23.790933 3.515733 36.215466 3.515734h154.112c12.4928 0 24.610133-1.194667 36.386134-3.515734l25.668266 114.9952z m-62.190933-151.790933h-154.0096c-74.888533 0-137.1136-55.7056-147.114667-127.7952h448.3072c-10.069333 72.0896-72.192 127.7952-147.182933 127.7952z m209.408-171.383467h-572.416c-11.502933 0-20.8896-9.1136-20.8896-20.309333s9.386667-20.309333 20.8896-20.309333h572.416c11.502933 0 20.8896 9.1136 20.8896 20.309333s-9.386667 20.309333-20.8896 20.309333z" fill="#797979" p-id="1458"></path></svg>