<?xml version="1.0" standalone="no"?><!DOCTYPE svg PUBLIC "-//W3C//DTD SVG 1.1//EN" "http://www.w3.org/Graphics/SVG/1.1/DTD/svg11.dtd"><svg t="1522687474691" class="icon" style="" viewBox="0 0 1024 1024" version="1.1" xmlns="http://www.w3.org/2000/svg" p-id="1135" xmlns:xlink="http://www.w3.org/1999/xlink" width="200" height="200"><defs><style type="text/css"></style></defs><path d="M923.41333333 238.93333333H102.72c-17.81333333 0-32.32 14.50666667-32.32 32.32v305.06666667c0 17.81333333 14.50666667 32.32 32.32 32.32h820.90666667c17.81333333 0 32.32-14.50666667 32.32-32.32v-305.06666667c-0.21333333-17.92-14.72-32.32-32.53333334-32.32zM812.05333333 565.86666667H214.18666667v-34.24h597.86666666v34.24z m101.01333334 0h-58.34666667v-76.90666667H171.52v76.90666667H113.06666667V445.01333333h800v120.85333334z m0-163.52H113.06666667V281.6h800v120.74666667z" fill="#797979" p-id="1136"></path><path d="M178.98666667 332.58666667h144.74666666v42.66666666H178.98666667zM345.28 332.58666667h58.88v42.66666666h-58.88zM236.16 656.74666667c-7.25333333-9.28-20.58666667-10.98666667-29.97333333-3.84-9.28 7.25333333-10.98666667 20.58666667-3.84 29.97333333 8.42666667 10.88 8.42666667 26.02666667 0 36.90666667-20.26666667 26.24-20.26666667 62.82666667 0 89.06666666 4.16 5.44 10.56 8.32 16.85333333 8.32 4.58666667 0 9.17333333-1.49333333 13.01333333-4.48 9.28-7.25333333 10.98666667-20.58666667 3.84-29.97333333-8.42666667-10.88-8.42666667-26.02666667 0-36.90666667 20.48-26.13333333 20.48-62.82666667 0.10666667-89.06666666zM359.57333333 656.74666667c-7.25333333-9.28-20.58666667-10.98666667-29.97333333-3.84-9.28 7.25333333-10.98666667 20.58666667-3.84 29.97333333 8.42666667 10.88 8.42666667 26.02666667 0 36.90666667-20.26666667 26.24-20.26666667 62.82666667 0 89.06666666 4.16 5.44 10.56 8.32 16.85333333 8.32 4.58666667 0 9.17333333-1.49333333 13.01333334-4.48 9.28-7.25333333 10.98666667-20.58666667 3.84-29.97333333-8.42666667-10.88-8.42666667-26.02666667 0-36.90666667 20.37333333-26.13333333 20.37333333-62.82666667 0.10666666-89.06666666zM482.88 656.74666667c-7.25333333-9.28-20.58666667-10.98666667-29.97333333-3.84-9.28 7.25333333-10.98666667 20.58666667-3.84 29.97333333 8.42666667 10.88 8.42666667 26.02666667 0 36.90666667-20.26666667 26.24-20.26666667 62.82666667 0 89.06666666 4.16 5.44 10.56 8.32 16.85333333 8.32 4.58666667 0 9.17333333-1.49333333 13.01333333-4.48 9.28-7.25333333 10.98666667-20.58666667 3.84-29.97333333-8.42666667-10.88-8.42666667-26.02666667 0-36.90666667 20.37333333-26.13333333 20.37333333-62.82666667 0.10666667-89.06666666zM606.18666667 656.74666667c-7.25333333-9.28-20.58666667-10.98666667-29.97333334-3.84-9.28 7.25333333-10.98666667 20.58666667-3.84 29.97333333 8.42666667 10.88 8.42666667 26.02666667 0 36.90666667-20.26666667 26.24-20.26666667 62.82666667 0 89.06666666 4.16 5.44 10.56 8.32 16.85333334 8.32 4.58666667 0 9.17333333-1.49333333 13.01333333-4.48 9.28-7.25333333 10.98666667-20.58666667 3.84-29.97333333-8.42666667-10.88-8.42666667-26.02666667 0-36.90666667 20.37333333-26.13333333 20.37333333-62.82666667 0.10666667-89.06666666zM835.2 690.02666667c-5.86666667-10.24-18.98666667-13.65333333-29.12-7.78666667l-21.44 12.37333333V669.86666667c0-11.73333333-9.6-21.33333333-21.33333333-21.33333334s-21.33333333 9.6-21.33333334 21.33333334v24.74666666l-21.44-12.37333333c-10.24-5.86666667-23.25333333-2.34666667-29.12 7.78666667-5.86666667 10.24-2.34666667 23.25333333 7.78666667 29.12l21.44 12.37333333-21.44 12.37333333c-10.24 5.86666667-13.65333333 18.98666667-7.78666667 29.12 3.94666667 6.82666667 11.09333333 10.66666667 18.45333334 10.66666667 3.62666667 0 7.25333333-0.96 10.66666666-2.88l21.44-12.37333333v24.74666666c0 11.73333333 9.6 21.33333333 21.33333334 21.33333334s21.33333333-9.6 21.33333333-21.33333334v-24.74666666l21.44 12.37333333c3.41333333 1.92 7.04 2.88 10.66666667 2.88 7.36 0 14.50666667-3.84 18.45333333-10.66666667 5.86666667-10.24 2.34666667-23.25333333-7.78666667-29.12l-21.44-12.37333333 21.44-12.37333333c10.13333333-5.86666667 13.65333333-18.98666667 7.78666667-29.12z" fill="#797979" p-id="1137"></path></svg>