<?xml version="1.0" standalone="no"?><!DOCTYPE svg PUBLIC "-//W3C//DTD SVG 1.1//EN" "http://www.w3.org/Graphics/SVG/1.1/DTD/svg11.dtd"><svg t="1529338343600" class="icon" style="" viewBox="0 0 1024 1024" version="1.1" xmlns="http://www.w3.org/2000/svg" p-id="7657" xmlns:xlink="http://www.w3.org/1999/xlink" width="200" height="200"><defs><style type="text/css"></style></defs><path d="M1003.749 475.713l-187.758 160.897c-11.823 11.523-17.217 28.126-14.425 44.397l44.334 258.442c3.468 20.479 0.005 35.156-16.787 47.389-9.502 6.908-20.805 10.431-32.11 10.431-8.683 0-17.393-2.076-25.393-6.281l-237.072-127.771c-14.611-7.681-32.067-7.681-46.678 0l-227.12 127.772c-18.403 9.693-40.684 8.054-57.532-4.15-16.793-12.233-30.206-26.882-26.682-47.389l54.309-263.807c2.791-16.271-2.604-32.874-14.425-44.397l-197.734-155.532c-14.935-14.499-20.26-36.206-13.871-55.974 6.444-19.769 23.51-34.158 44.097-37.162l257.198-45.137c16.332-2.375 30.449-12.631 37.756-27.428l118.411-249.883c9.175-18.649 28.153-30.445 48.958-30.445s39.728 11.795 48.958 30.445l113.766 249.876c7.306 14.801 21.425 25.061 37.761 27.437l261.838 45.135c20.533 2.976 37.653 17.393 44.044 37.162 6.417 19.767 1.010 41.474-13.842 55.973z" p-id="7658" fill="#CDA472"></path></svg>