<?xml version="1.0" standalone="no"?><!DOCTYPE svg PUBLIC "-//W3C//DTD SVG 1.1//EN" "http://www.w3.org/Graphics/SVG/1.1/DTD/svg11.dtd"><svg t="1529338260926" class="icon" style="" viewBox="0 0 1024 1024" version="1.1" xmlns="http://www.w3.org/2000/svg" p-id="7361" xmlns:xlink="http://www.w3.org/1999/xlink" width="200" height="200"><defs><style type="text/css"></style></defs><path d="M994.8 394.788c-8.437-23.742-30.033-41.155-56.058-44.938l-253.128-36.767L575.611 89.667C564.009 66.212 539.249 51.2 511.985 51.2s-52.02 15.012-63.596 38.467L338.386 313.083 85.207 349.85c-25.974 3.783-47.595 21.17-55.987 44.938-8.34 23.792-2.017 50.032 16.317 67.906l185.493 181.12-43.024 251.26c-4.352 25.297 6.836 50.662 28.846 65.479 12.038 8.125 26.24 12.247 40.469 12.247 11.648 0 23.373-2.79 33.976-8.366l220.688-116.168 220.707 116.168a73.196 73.196 0 0 0 33.977 8.366 72.806 72.806 0 0 0 40.494-12.247c21.96-14.817 33.126-40.187 28.795-65.48l-43.05-251.259 185.544-181.12c18.366-17.9 24.643-44.114 16.349-67.906zM742.667 597.125c-15.565 15.16-22.64 36.547-19.067 57.477l43.07 251.26L545.96 789.718a73.062 73.062 0 0 0-33.976-8.366c-11.648 0-23.373 2.79-33.951 8.366l-220.76 116.147 43.05-251.259c3.6-20.93-3.477-42.322-19.021-57.477L95.785 416.036l253.128-36.864c23.152-3.37 43.049-17.536 52.997-37.688l110.075-223.366L622.06 341.463c9.973 20.204 29.818 34.32 52.92 37.714l253.179 36.838-185.493 181.11z" p-id="7362" fill="#CDA472"></path></svg>