<?xml version="1.0" standalone="no"?><!DOCTYPE svg PUBLIC "-//W3C//DTD SVG 1.1//EN" "http://www.w3.org/Graphics/SVG/1.1/DTD/svg11.dtd"><svg t="1522429373871" class="icon" style="" viewBox="0 0 1024 1024" version="1.1" xmlns="http://www.w3.org/2000/svg" p-id="5818" xmlns:xlink="http://www.w3.org/1999/xlink" width="200" height="200"><defs><style type="text/css"></style></defs><path d="M896 128l-128 0L768 96C768 76.8 755.2 64 736 64S704 76.8 704 96L704 128 320 128 320 96C320 76.8 307.2 64 288 64S256 76.8 256 96L256 128 128 128C89.6 128 64 153.6 64 185.6l0 716.8C64 934.4 89.6 960 128 960l768 0c38.4 0 64-25.6 64-57.6L960 185.6C960 153.6 934.4 128 896 128zM192 192l64 0 0 32C256 243.2 268.8 256 288 256S320 243.2 320 224L320 192l384 0 0 32C704 243.2 716.8 256 736 256S768 243.2 768 224L768 192l64 0c38.4 0 64 25.6 64 64l0 64L128 320 128 256C128 217.6 153.6 192 192 192zM832 896 192 896c-38.4 0-64-25.6-64-64L128 384l768 0 0 448C896 870.4 870.4 896 832 896z" p-id="5819" fill="#707070"></path><path d="M256 480 192 480C172.8 480 160 492.8 160 512c0 19.2 12.8 32 32 32l64 0c19.2 0 32-12.8 32-32C288 492.8 275.2 480 256 480z" p-id="5820" fill="#707070"></path><path d="M448 480 384 480C364.8 480 352 492.8 352 512c0 19.2 12.8 32 32 32l64 0c19.2 0 32-12.8 32-32C480 492.8 467.2 480 448 480z" p-id="5821" fill="#707070"></path><path d="M640 480 576 480C556.8 480 544 492.8 544 512c0 19.2 12.8 32 32 32l64 0c19.2 0 32-12.8 32-32C672 492.8 659.2 480 640 480z" p-id="5822" fill="#707070"></path><path d="M832 480l-64 0c-19.2 0-32 12.8-32 32 0 19.2 12.8 32 32 32l64 0c19.2 0 32-12.8 32-32C864 492.8 851.2 480 832 480z" p-id="5823" fill="#707070"></path><path d="M256 608 192 608c-19.2 0-32 12.8-32 32 0 19.2 12.8 32 32 32l64 0c19.2 0 32-12.8 32-32C288 620.8 275.2 608 256 608z" p-id="5824" fill="#707070"></path><path d="M448 608 384 608c-19.2 0-32 12.8-32 32 0 19.2 12.8 32 32 32l64 0c19.2 0 32-12.8 32-32C480 620.8 467.2 608 448 608z" p-id="5825" fill="#707070"></path><path d="M640 608 576 608c-19.2 0-32 12.8-32 32 0 19.2 12.8 32 32 32l64 0c19.2 0 32-12.8 32-32C672 620.8 659.2 608 640 608z" p-id="5826" fill="#707070"></path><path d="M832 608l-64 0c-19.2 0-32 12.8-32 32 0 19.2 12.8 32 32 32l64 0c19.2 0 32-12.8 32-32C864 620.8 851.2 608 832 608z" p-id="5827" fill="#707070"></path><path d="M256 736 192 736c-19.2 0-32 12.8-32 32s12.8 32 32 32l64 0c19.2 0 32-12.8 32-32S275.2 736 256 736z" p-id="5828" fill="#707070"></path><path d="M448 736 384 736c-19.2 0-32 12.8-32 32s12.8 32 32 32l64 0c19.2 0 32-12.8 32-32S467.2 736 448 736z" p-id="5829" fill="#707070"></path><path d="M640 736 576 736c-19.2 0-32 12.8-32 32s12.8 32 32 32l64 0c19.2 0 32-12.8 32-32S659.2 736 640 736z" p-id="5830" fill="#707070"></path><path d="M832 736l-64 0c-19.2 0-32 12.8-32 32s12.8 32 32 32l64 0c19.2 0 32-12.8 32-32S851.2 736 832 736z" p-id="5831" fill="#707070"></path></svg>