<?xml version="1.0" standalone="no"?><!DOCTYPE svg PUBLIC "-//W3C//DTD SVG 1.1//EN" "http://www.w3.org/Graphics/SVG/1.1/DTD/svg11.dtd"><svg t="1522662564297" class="icon" style="" viewBox="0 0 1024 1024" version="1.1" xmlns="http://www.w3.org/2000/svg" p-id="46603" xmlns:xlink="http://www.w3.org/1999/xlink" width="200" height="200"><defs><style type="text/css"></style></defs><path d="M931.0208 420.9664c0-40.8576-30.5152-71.3728-71.4752-71.3728-52.0192-0.1024-104.0384 0-156.0576 0l-5.2224 0c-0.1024-2.048-0.2048-3.6864-0.2048-5.4272 0-59.904 0-119.808 0-179.8144 0-33.4848-21.2992-61.0304-53.1456-69.0176-3.1744-0.8192-6.3488-1.3312-9.5232-2.048L154.4192 93.2864c-3.9936 0.9216-7.9872 1.536-11.8784 2.7648-27.9552 9.216-44.544 28.16-49.664 57.1392-0.1024 0.8192-0.512 1.536-0.7168 2.2528l0 776.6016 838.8608 0 0-4.5056C931.0208 758.6816 931.0208 589.824 931.0208 420.9664L931.0208 420.9664zM651.4688 882.9952 138.752 882.9952l0-4.3008c0-221.2864 0-442.6752 0-663.9616 0-33.9968 22.3232-64.3072 53.5552-72.704 5.632-1.536 11.5712-2.1504 17.408-2.1504 123.5968-0.1024 247.0912-0.1024 370.688-0.1024 33.6896 0 63.5904 26.112 69.5296 60.3136 0.9216 5.3248 1.4336 10.8544 1.4336 16.2816 0.1024 220.3648 0.1024 440.7296 0.1024 661.0944L651.4688 882.9952 651.4688 882.9952zM884.3264 879.616c0 1.024-0.1024 2.1504-0.2048 3.3792L698.2656 882.9952c-0.1024-1.536-0.2048-2.9696-0.2048-4.4032 0-156.5696 0-313.1392-0.1024-469.7088 0-3.584 1.024-5.3248 4.5056-5.8368 6.2464-0.8192 12.3904-2.4576 18.6368-2.4576 31.232-0.3072 62.464-0.2048 93.7984-0.1024 38.2976 0.2048 69.5296 30.9248 69.5296 69.2224C884.4288 606.3104 884.3264 743.0144 884.3264 879.616L884.3264 879.616zM884.3264 879.616M558.08 512.6144c25.7024 0 46.6944-20.8896 46.6944-46.4896 0-25.6-20.992-46.6944-46.592-46.6944-25.7024 0-46.6944 20.8896-46.6944 46.592C511.5904 491.6224 532.48 512.6144 558.08 512.6144L558.08 512.6144zM558.08 512.6144M558.2848 349.4912c25.6 0 46.592-20.992 46.592-46.6944 0-25.6-21.0944-46.592-46.6944-46.592-25.7024 0-46.592 20.992-46.592 46.6944C511.5904 328.6016 532.5824 349.5936 558.2848 349.4912L558.2848 349.4912zM558.2848 349.4912M395.0592 349.4912c25.6 0 46.6944-20.992 46.6944-46.592 0-25.6-20.992-46.6944-46.592-46.6944-25.7024 0-46.592 20.8896-46.592 46.592C348.5696 328.6016 369.3568 349.4912 395.0592 349.4912L395.0592 349.4912zM395.0592 349.4912M558.4896 582.4512c-25.4976-0.2048-46.7968 20.7872-46.8992 46.3872-0.1024 25.8048 20.6848 46.6944 46.3872 46.7968 25.8048 0.1024 46.7968-20.5824 46.8992-46.2848C604.9792 603.7504 584.0896 582.656 558.4896 582.4512L558.4896 582.4512zM558.4896 582.4512M395.1616 512.6144c25.6 0 46.592-21.0944 46.4896-46.6944-0.1024-25.6-21.0944-46.592-46.7968-46.592-25.7024 0-46.4896 20.992-46.4896 46.7968C348.5696 491.8272 369.4592 512.6144 395.1616 512.6144L395.1616 512.6144zM395.1616 512.6144M231.936 349.4912c25.7024 0 46.592-20.8896 46.592-46.592 0-25.7024-20.8896-46.592-46.592-46.592-25.7024 0-46.4896 20.8896-46.4896 46.592C185.4464 328.704 206.2336 349.4912 231.936 349.4912L231.936 349.4912zM231.936 349.4912M395.264 582.4512c-25.6-0.2048-46.6944 20.7872-46.7968 46.4896-0.1024 25.8048 20.5824 46.6944 46.3872 46.7968 25.8048 0.1024 46.6944-20.5824 46.7968-46.3872C441.9584 603.8528 420.9664 582.656 395.264 582.4512L395.264 582.4512zM395.264 582.4512M185.4464 464.7936c-0.4096 26.112 19.968 47.5136 45.6704 47.8208 26.0096 0.3072 47.0016-20.1728 47.4112-46.1824 0.4096-25.3952-20.2752-46.592-45.7728-47.104C207.36 418.9184 185.856 439.3984 185.4464 464.7936L185.4464 464.7936zM185.4464 464.7936M232.2432 582.4512c-25.6-0.2048-46.6944 20.6848-46.7968 46.3872-0.1024 25.8048 20.48 46.7968 46.2848 46.7968 25.8048 0.1024 46.592-20.3776 46.8992-46.2848C278.8352 603.8528 257.9456 582.7584 232.2432 582.4512L232.2432 582.4512zM232.2432 582.4512" p-id="46604" fill="#707070"></path></svg>