<?xml version="1.0" standalone="no"?><!DOCTYPE svg PUBLIC "-//W3C//DTD SVG 1.1//EN" "http://www.w3.org/Graphics/SVG/1.1/DTD/svg11.dtd"><svg t="1522662406683" class="icon" style="" viewBox="0 0 1024 1024" version="1.1" xmlns="http://www.w3.org/2000/svg" p-id="45505" xmlns:xlink="http://www.w3.org/1999/xlink" width="200" height="200"><defs><style type="text/css"></style></defs><path d="M957.05088 328.9856c-79.0784-68.0448-166.2208-73.1648-166.2208-73.1648-318.53056-204.86656-533.07904 0-533.07904 0-120.82176 2.92352-191.85152 73.1648-191.85152 73.1648v188.0832c-14.11584 19.33824-22.70208 42.94144-22.70208 68.736v257.54112h140.5952v-70.74304h655.62112v70.74304H980.47488v-257.54112c0-26.20416-8.89856-50.11968-23.42912-69.6064V328.9856z m-844.288 16.82944c74.69056-49.024 151.5776-46.09536 151.5776-46.09536 252.62592-212.17792 521.36448 1.46432 521.36448 1.46432 95.16544 12.98944 138.84928 63.92832 124.48256 51.21536v126.21312a116.52608 116.52608 0 0 0-46.86848-9.8816h-48.7168c-25.1904-52.44928-78.60736-88.78592-140.68736-88.78592-62.1056 0-115.51744 36.33152-140.70784 88.78592h-42.74176c-25.19552-52.44928-78.60736-88.78592-140.70784-88.78592-62.08 0-115.51232 36.33152-140.68224 88.78592H160.3584c-16.9984 0-33.01888 3.77344-47.59552 10.2656V345.81504z m650.4448 122.92096h-178.60096c20.48-27.12064 52.70016-44.88192 89.30816-44.88192 36.59264 0 68.80768 17.76128 89.2928 44.88192z m-324.13696 0H260.47488c20.50048-27.12064 52.69504-44.88192 89.28768-44.88192 36.608 0 68.82816 17.76128 89.30816 44.88192z m494.55104 135.58272v192.19968h-46.85824v-70.23616H137.40544v70.23616h-46.35648v-210.7136h-0.98816c0-38.80448 31.46752-70.2464 70.2976-70.2464h702.96064c38.8352 0 70.2976 31.44192 70.2976 70.2464v18.51392h0.00512z" p-id="45506" fill="#707070"></path></svg>