<?xml version="1.0" standalone="no"?><!DOCTYPE svg PUBLIC "-//W3C//DTD SVG 1.1//EN" "http://www.w3.org/Graphics/SVG/1.1/DTD/svg11.dtd"><svg t="1522685963518" class="icon" style="" viewBox="0 0 1024 1024" version="1.1" xmlns="http://www.w3.org/2000/svg" p-id="48146" xmlns:xlink="http://www.w3.org/1999/xlink" width="200" height="200"><defs><style type="text/css"></style></defs><path d="M218.47269380045435 793.6915279012346c-9.468623156464195 9.468623156464195-9.468623156464195 23.67155659662222 0 33.14017975308642 82.85044938271605 78.11613780448396 189.37245536205432 123.09209585588148 302.9959293560098 123.09209585588148 241.4498814280691 0 437.92380351020245-196.47392337667162 437.92380351020245-437.92380351020245S762.9185032899951 74.07619648979755 521.4686231564642 74.07619648979755 83.54481835172345 270.55011857193097 83.54481835172345 512c0 82.85044938271605 23.67155659662222 165.7008987654321 68.647515942558 236.71556984983704 7.101466720079011 11.83577829831111 21.304401454775306 14.202934734696296 33.14017975308642 7.101466720079011 11.83577829831111-7.101466720079011 14.202934734696296-21.304401454775306 7.101466720079011-33.14017975308642-40.24164647316543-61.54604792794074-61.54604792794074-134.92787415419258-61.54604792794074-210.6768568168296 0-215.41116839506174 175.16952192189632-390.580690316958 390.580690316958-390.580690316958S912.0493121788841 296.58883160493826 912.0493121788841 512s-175.16952192189632 390.580690316958-390.58068902241973 390.580690316958c-101.78769440110615 0-196.47392337667162-37.87449133131852-269.8557496029234-108.88916241572346-9.468623156464195-9.468623156464195-26.038713033007408-9.468623156464195-33.14017975308642 0z" fill="#13227a" p-id="48147"></path><path d="M481.22697538876054 677.700898765432c7.101466720079011 0 11.83577829831111-2.3671551418469137 16.57008987654321-7.101466720079011l248.55134814814815-248.55134814814815c9.468623156464195-9.468623156464195 9.468623156464195-23.67155659662222 0-33.14017975308642s-23.67155659662222-9.468623156464195-33.14017975308642 0l-231.98125827160493 231.98125827160493-153.8651191725827-153.865120467121c-9.468623156464195-9.468623156464195-23.67155659662222-9.468623156464195-33.14017975308642 0s-9.468623156464195 23.67155659662222 0 33.14017975308642l170.43520904912594 170.43521034366415c4.734311578232098 4.734311578232098 11.83577829831111 7.101466720079011 16.57008987654321 7.101466720079011z" fill="#13227a" p-id="48148"></path></svg>