<?xml version="1.0" standalone="no"?><!DOCTYPE svg PUBLIC "-//W3C//DTD SVG 1.1//EN" "http://www.w3.org/Graphics/SVG/1.1/DTD/svg11.dtd"><svg t="1523964667355" class="icon" style="" viewBox="0 0 1024 1024" version="1.1" xmlns="http://www.w3.org/2000/svg" p-id="1730" xmlns:xlink="http://www.w3.org/1999/xlink" width="200" height="200"><defs><style type="text/css"></style></defs><path d="M506.311111 617.244444c-8.533333 0-19.911111-2.844444-25.6-5.688889l-412.444444-256C59.733333 349.866667 56.888889 344.177778 56.888889 335.644444c0-8.533333 2.844444-14.222222 8.533333-17.066667l412.444444-256c11.377778-8.533333 39.822222-8.533333 51.2 0l403.911111 256c5.688889 2.844444 8.533333 11.377778 8.533333 17.066667 0 8.533333-2.844444 14.222222-8.533333 17.066667l-403.911111 256C526.222222 614.4 514.844444 617.244444 506.311111 617.244444L506.311111 617.244444 506.311111 617.244444zM500.622222 548.977778c0 0 2.844444 0 5.688889 0 2.844444 0 5.688889 0 8.533333 0l349.866667-213.333333L512 119.466667l0 0c0 0-2.844444 0-5.688889 0-2.844444 0-5.688889 0-8.533333 0L142.222222 335.644444 500.622222 548.977778 500.622222 548.977778 500.622222 548.977778 500.622222 548.977778zM941.511111 810.666667c-19.911111 0-28.444444-17.066667-28.444444-28.444444L913.066667 466.488889c0-11.377778 11.377778-22.755556 25.6-22.755556 19.911111-2.844444 28.444444 11.377778 28.444444 22.755556l0 315.733333C967.111111 793.6 961.422222 810.666667 941.511111 810.666667L941.511111 810.666667z" p-id="1731" fill="#B38758"></path><path d="M509.155556 967.111111 201.955556 782.222222 270.222222 426.666667l238.933333 128 238.933333-128 65.422222 355.555556L509.155556 967.111111 509.155556 967.111111zM264.533333 753.777778l241.777778 147.911111 241.777778-145.066667-45.511111-250.311111-199.111111 93.866667-196.266667-91.022222L264.533333 753.777778 264.533333 753.777778zM256 765.155556" p-id="1732" fill="#B38758"></path></svg>