<?xml version="1.0" standalone="no"?><!DOCTYPE svg PUBLIC "-//W3C//DTD SVG 1.1//EN" "http://www.w3.org/Graphics/SVG/1.1/DTD/svg11.dtd"><svg t="1523352353281" class="icon" style="" viewBox="0 0 1024 1024" version="1.1" xmlns="http://www.w3.org/2000/svg" p-id="6547" xmlns:xlink="http://www.w3.org/1999/xlink" width="200" height="200"><defs><style type="text/css"></style></defs><path d="M512 962.919876c-248.28376 0-449.610044-201.867614-449.610044-450.875874 0-249.098311 201.326285-450.964902 449.610044-450.964902 248.374834 0 449.610044 201.86659 449.610044 450.964902C961.610044 761.052263 760.374834 962.919876 512 962.919876L512 962.919876zM471.827045 386.90798c12.484336-16.196891 27.77253-24.25031 45.87277-24.25031 13.571087 0 24.701588 3.980661 33.205263 12.125155 8.507768 8.143471 13.843286 20.719904 15.83771 37.731346l82.695421-9.139148c-6.058996-36.374442-20.267603-64.061015-42.434461-83.153862-22.164812-19.091824-50.216705-28.593222-84.143399-28.593222-48.232514 0-87.50189 18.096147-117.723192 54.289464-30.219255 36.102243-45.332465 95.187943-45.332465 177.074951 0 79.896678 14.482853 137.353274 43.431162 172.370813 29.049616 35.105542 66.056462 52.569286 111.025653 52.569286 41.983183 0 76.368318-13.753235 103.151311-41.440831 26.782993-27.597545 40.171931-64.24214 40.171931-109.935832 0-42.980907-12.756535-78.087473-38.184671-105.322767-25.514093-27.234271-56.098669-40.807405-91.840708-40.807405-31.665187 0-58.086953 12.577456-79.441307 37.820374C451.376271 436.944584 459.246519 403.103848 471.827045 386.90798L471.827045 386.90798zM573.799508 597.370343c0 28.322046-5.246491 48.589648-15.833617 60.98598-10.494005 12.395308-23.707958 18.639522-39.539528 18.639522-16.471137 0-31.0379-7.601118-43.798529-22.710234-12.846586-15.201214-19.180851-36.646642-19.180851-64.514339 0-25.155936 5.700839-44.245713 17.011442-57.095369 11.401678-12.938684 25.245987-19.361977 41.715077-19.361977 17.007349 0 31.216979 6.694469 42.614563 20.267603C568.100716 547.06154 573.799508 568.32482 573.799508 597.370343L573.799508 597.370343z" p-id="6548" fill="#707070"></path></svg>