<?xml version="1.0" standalone="no"?><!DOCTYPE svg PUBLIC "-//W3C//DTD SVG 1.1//EN" "http://www.w3.org/Graphics/SVG/1.1/DTD/svg11.dtd"><svg t="1523352365433" class="icon" style="" viewBox="0 0 1024 1024" version="1.1" xmlns="http://www.w3.org/2000/svg" p-id="7426" xmlns:xlink="http://www.w3.org/1999/xlink" width="200" height="200"><defs><style type="text/css"></style></defs><path d="M512.048095 962.832895c-248.351298 0-449.65814-201.849194-449.65814-450.833919S263.696798 61.166081 512.048095 61.166081c248.260224 0 449.561949 201.848171 449.561949 450.832895S760.309342 962.832895 512.048095 962.832895L512.048095 962.832895zM663.685701 304.993343 371.356796 304.993343l0 79.618339 194.522322 0c-39.99183 50.665936-72.022337 108.116393-95.996354 172.352393-23.88499 64.237023-36.640502 127.298268-37.997406 189.092659l82.154092 0c-0.274246-39.35738 6.144954-84.142375 19.267832-134.263913 13.025665-50.123584 32.028461-97.44024 56.910151-142.045133 24.880667-44.514843 49.399083-78.621639 73.468269-102.417601L663.685701 304.993343 663.685701 304.993343z" p-id="7427" fill="#707070"></path></svg>