<?xml version="1.0" standalone="no"?><!DOCTYPE svg PUBLIC "-//W3C//DTD SVG 1.1//EN" "http://www.w3.org/Graphics/SVG/1.1/DTD/svg11.dtd"><svg t="1523352377160" class="icon" style="" viewBox="0 0 1024 1024" version="1.1" xmlns="http://www.w3.org/2000/svg" p-id="8322" xmlns:xlink="http://www.w3.org/1999/xlink" width="200" height="200"><defs><style type="text/css"></style></defs><path d="M511.997953 962.874851c-248.28376 0-449.607998-201.86659-449.607998-450.875874 0-249.00826 201.324238-450.875874 449.607998-450.875874 248.287853 0 449.612091 201.86659 449.612091 450.875874C961.610044 761.009284 760.285806 962.874851 511.997953 962.874851L511.997953 962.874851zM635.870192 461.873346c10.770298-16.196891 16.109909-34.565237 16.109909-55.285141 0-33.207309-11.675924-60.714803-35.111682-82.429361-23.435759-21.715581-56.279794-32.573883-98.624205-32.573883-42.797735 0-75.732845 10.858302-98.989525 32.573883-23.163559 21.714558-34.836413 49.222051-34.836413 82.429361 0 19.544125 5.067412 37.369096 15.113209 53.747111 10.039657 16.286941 26.059516 29.133527 48.1353 38.4538-25.786293 11.039427-44.60694 26.691919-56.551994 46.960545-12.032034 20.268626-18.005073 42.527582-18.005073 66.684772 0 44.066635 15.921621 78.720899 47.686069 103.96484 26.962072 21.35333 60.70764 32.030507 101.247962 32.030507 43.522236 0 78.360695-12.938684 104.601336-38.816051 26.234501-25.789363 39.35738-59.44795 39.35738-100.797707 0-25.062815-6.424316-47.142693-19.273972-66.323545-12.760628-19.183921-31.487132-33.750685-56.19179-43.704384C609.992825 490.283396 625.105011 477.979162 635.870192 461.873346L635.870192 461.873346zM520.595772 679.664627c-18.005073 0-33.028231-6.696516-45.056172-19.996426-12.129248-13.301957-18.102287-31.850405-18.102287-55.648414 0-16.920368 5.067412-32.753985 15.293311-47.230698 10.223852-14.567787 25.786293-21.895683 46.689369-21.895683 18.005073 0 32.93511 6.42227 44.696991 19.272949 11.765975 12.757558 17.553795 29.677926 17.553795 50.850132 0 24.159236-5.696746 42.617633-17.281595 55.377238C552.809451 673.240311 538.238594 679.664627 520.595772 679.664627L520.595772 679.664627zM518.154163 467.211934c-15.921621 0-28.682249-4.795213-38.278815-14.387685-9.588379-9.591449-14.385639-22.892383-14.385639-39.992853 0-16.10684 4.89038-29.045523 14.56881-38.818097 9.683547-9.771551 22.716374-14.658861 39.001269-14.658861 15.742543 0 28.412097 4.795213 38.000476 14.477736 9.590426 9.6815 14.389732 22.620184 14.389732 38.635949 0 17.10047-4.888334 30.491455-14.570857 40.172955C547.199687 462.324624 534.349007 467.211934 518.154163 467.211934L518.154163 467.211934z" p-id="8323" fill="#707070"></path></svg>