<?xml version="1.0" standalone="no"?><!DOCTYPE svg PUBLIC "-//W3C//DTD SVG 1.1//EN" "http://www.w3.org/Graphics/SVG/1.1/DTD/svg11.dtd"><svg t="1523352393191" class="icon" style="" viewBox="0 0 1024 1024" version="1.1" xmlns="http://www.w3.org/2000/svg" p-id="9225" xmlns:xlink="http://www.w3.org/1999/xlink" width="200" height="200"><defs><style type="text/css"></style></defs><path d="M512 962.924993c-248.290923 0-449.610044-201.86966-449.610044-450.880991 0-249.010307 201.319122-450.968995 449.610044-450.968995 248.37688 0 449.610044 201.958688 449.610044 450.968995C961.610044 761.055332 760.37688 962.924993 512 962.924993L512 962.924993zM624.835881 335.602478c-28.957519-35.107589-66.056462-52.661384-111.298875-52.661384-41.529859 0-75.824943 13.84431-102.69901 41.621956-26.872021 27.688619-40.263006 64.153112-40.263006 109.484553 0 43.433208 12.754488 78.720899 38.182624 105.775069 25.517163 27.145244 55.740512 40.627303 90.848101 40.627303 32.30066 0 59.174728-12.486382 80.712253-37.46017-3.440355 51.30448-11.310603 85.055165-23.619954 101.342106-12.304234 16.376992-27.323299 24.520463-44.881187 24.520463-13.932314 0-25.15389-4.071735-33.562397-12.215206-8.509814-8.233522-13.756305-20.720927-15.839757-37.641295l-82.608439 9.139148c6.058996 37.098943 19.814278 65.057715 41.255613 83.697237 21.447475 18.639522 49.586348 27.959795 84.334757 27.959795 48.41057 0 87.588871-18.006096 117.719098-54.29151 30.221302-36.193317 45.23832-95.097892 45.23832-176.803775C668.354024 428.347788 653.879358 370.618992 624.835881 335.602478L624.835881 335.602478zM514.167363 517.65479c-17.095353 0-31.308053-6.786567-42.705638-20.267603-11.401678-13.482059-17.0974-34.656311-17.0974-63.429635 0-28.41312 5.244444-48.770773 15.740496-61.258179 10.409071-12.486382 23.616884-18.729573 39.448454-18.729573 16.654308 0 31.401174 7.600095 44.072775 22.802332 12.754488 15.201214 19.087731 36.645618 19.087731 64.152089 0 25.154913-5.609765 44.246737-16.922415 57.276495C544.481785 511.140423 530.642592 517.65479 514.167363 517.65479L514.167363 517.65479z" p-id="9226" fill="#707070"></path></svg>