<?xml version="1.0" standalone="no"?><!DOCTYPE svg PUBLIC "-//W3C//DTD SVG 1.1//EN" "http://www.w3.org/Graphics/SVG/1.1/DTD/svg11.dtd"><svg t="1523353686381" class="icon" style="" viewBox="0 0 1024 1024" version="1.1" xmlns="http://www.w3.org/2000/svg" p-id="2509" xmlns:xlink="http://www.w3.org/1999/xlink" width="200" height="200"><defs><style type="text/css"></style></defs><path d="M554.666667 375.466667v93.866666h93.866666a93.866667 93.866667 0 0 0-93.866666-93.866666m0-187.733334v93.866667c103.509333 0 187.733333 84.224 187.733333 187.733333h93.866667a281.6 281.6 0 0 0-281.6-281.6m0-187.733333v93.866667c207.018667 0 375.466667 168.448 375.466666 375.466666H1024A469.333333 469.333333 0 0 0 554.666667 0m133.034666 941.056c-0.597333 1.536-0.597333 1.706667 0 0M802.986667 772.437333c-39.509333-21.333333-79.530667-45.482667-120.832-62.378666-79.957333-32.597333-74.581333 63.744-131.584 94.976-37.12 20.309333-89.429333-16.469333-121.856-36.864A574.72 574.72 0 0 1 280.490667 631.466667c-21.333333-27.733333-68.437333-79.786667-62.634667-118.613334 9.216-61.696 82.176-64.853333 61.269333-140.202666-11.093333-40.448-31.061333-80.213333-46.08-119.125334-19.968-52.138667-28.16-85.504-86.698666-82.688-42.154667 2.048-70.144 20.053333-96.085334 53.930667C-19.968 316.16-9.386667 439.466667 37.802667 539.733333c66.730667 141.994667 181.248 275.797333 303.445333 362.24 83.2 58.88 192.768 112.213333 293.461333 121.258667 73.728 6.656 176.896-33.28 203.264-113.237333l-4.437333 13.482666 4.437333-13.482666 4.608-13.909334c-0.853333 2.304-2.56 7.936-4.522666 13.653334 23.210667-70.485333 26.026667-104.448-34.986667-137.386667m-107.946667 146.090667c0.341333-1.109333 0.341333-1.194667 0 0" p-id="2510" fill="#707070"></path></svg>