<?xml version="1.0" standalone="no"?><!DOCTYPE svg PUBLIC "-//W3C//DTD SVG 1.1//EN" "http://www.w3.org/Graphics/SVG/1.1/DTD/svg11.dtd"><svg t="1523353892837" class="icon" style="" viewBox="0 0 1024 1024" version="1.1" xmlns="http://www.w3.org/2000/svg" p-id="3332" xmlns:xlink="http://www.w3.org/1999/xlink" width="200" height="200"><defs><style type="text/css"></style></defs><path d="M800 460.8 800 409.6c0-128-102.4-230.4-230.4-230.4L454.4 179.2c-128 0-230.4 102.4-230.4 230.4l0 57.6C172.8 460.8 128 505.6 128 563.2l0 64c0 51.2 44.8 96 96 96L256 723.2c12.8 0 25.6-6.4 32-12.8L448 787.2c0 32 32 57.6 64 57.6 38.4 0 64-25.6 64-64s-25.6-64-64-64c-12.8 0-25.6 6.4-32 12.8L320 652.8l0-128c0-25.6-12.8-44.8-32-51.2l0-64c0-89.6 76.8-166.4 166.4-166.4l115.2 0c89.6 0 166.4 76.8 166.4 166.4l0 64C716.8 486.4 704 505.6 704 524.8l0 128c0 32 32 64 64 64l32 0c51.2 0 96-44.8 96-96l0-64C896 505.6 851.2 460.8 800 460.8z" p-id="3333" fill="#707070"></path></svg>