<?xml version="1.0" standalone="no"?><!DOCTYPE svg PUBLIC "-//W3C//DTD SVG 1.1//EN" "http://www.w3.org/Graphics/SVG/1.1/DTD/svg11.dtd"><svg t="1529311663243" class="icon" style="" viewBox="0 0 1024 1024" version="1.1" xmlns="http://www.w3.org/2000/svg" p-id="5073" xmlns:xlink="http://www.w3.org/1999/xlink" width="200" height="200"><defs><style type="text/css"></style></defs><path d="M661.056 477.48c-11.88-5-25.56 0.62-30.56 12.46-0.4 0.92-39.3 90.64-118.5 90.64-78.34 0-110.9-85.88-112.28-89.58-4.38-12.1-17.8-18.34-29.84-13.96-12.14 4.38-18.4 17.76-14.04 29.86 1.78 4.92 44.76 120.36 156.14 120.36 110.54 0 159.52-114.42 161.56-119.3C678.496 496.06 672.896 482.46 661.056 477.48zM637.876 796.736c163.74-53.24 282.52-207.08 282.52-388.34C920.396 183.22 737.176 0 512 0S103.6 183.22 103.6 408.4c0 181.66 119.26 335.86 283.58 388.74-124.12 59.44-151.6 197.54-151.92 199.3-2.34 12.64 6.04 24.78 18.7 27.12 12.66 2.44 24.8-6 27.2-18.66 1.46-7.68 37.6-188.1 230.86-188.1 194.82 0 246.66 182.18 248.74 189.88 2.78 10.44 12.22 17.32 22.54 17.32 2 0 4.04-0.26 6.06-0.82 12.44-3.34 19.84-16.12 16.5-28.56C805.356 992.856 766.496 855.616 637.876 796.736zM160.5 408.4c0-193.82 157.68-351.48 351.5-351.48s351.5 157.66 351.5 351.48-157.68 351.5-351.5 351.5S160.5 602.22 160.5 408.4z" p-id="5074" fill="#797979"></path></svg>