<?xml version="1.0" standalone="no"?><!DOCTYPE svg PUBLIC "-//W3C//DTD SVG 1.1//EN" "http://www.w3.org/Graphics/SVG/1.1/DTD/svg11.dtd"><svg t="1529346013476" class="icon" style="" viewBox="0 0 1024 1024" version="1.1" xmlns="http://www.w3.org/2000/svg" p-id="8579" xmlns:xlink="http://www.w3.org/1999/xlink" width="200" height="200"><defs><style type="text/css"></style></defs><path d="M869.586985 79.57936H185.994727c-40.638992 0-73.894754 33.243475-73.894754 73.906016v683.583043c0 40.638992 33.254738 73.906017 73.894754 73.906017h683.592258c40.652302 0 73.907041-33.263953 73.90704-73.906017V153.485376c0-40.662541-33.254738-73.906017-73.90704-73.906016z m-91.520922 521.606594c-7.035109 10.192768-20.883144 12.674664-30.931545 5.50133L590.425954 495.276386H446.692052a559.161647 559.161647 0 0 1-61.348076 69.282155h68.374994a24.081759 24.081759 0 0 1 4.86345-0.090102c0.274401 0.021502 0.544706 0.058361 0.816036 0.090102h206.963877c12.753503 0 23.094734 10.330993 23.094734 23.095758v161.662116c0 12.764766-10.341231 23.09371-23.094734 23.093711h-92.377913c-12.752479 0-23.094734-10.328945-23.094735-23.093711 0-12.766813 10.342255-23.095758 23.094735-23.095758h69.283179V610.746986H479.193211c-10.763072 62.196876-43.638973 117.08117-93.366985 155.278197-12.854867 9.876388-30.738031 7.307462-38.384399-4.149803-7.691419-11.480815-4.543999-26.184817 5.762421-34.146541 38.094639-29.25647 64.292767-70.274299 75.20635-116.982877h-62.272644c-8.685611 0-16.24802-4.793826-20.190998-11.881154a560.305325 560.305325 0 0 1-33.575214 24.623394c-12.539511 8.524861-28.281732 5.99689-34.6206-4.939218-6.335796-10.93918-1.962786-25.507006 9.29175-33.129824a510.991986 510.991986 0 0 0 101.032807-90.144822h-114.316682c-12.753503 0-23.094734-10.329969-23.094734-23.094734s10.341231-23.094734 23.094734-23.094735H423.36592a507.318289 507.318289 0 0 0 27.826103-46.188444H319.948486c-12.753503 0-23.094734-10.328945-23.094734-23.094735 0-12.764766 10.341231-23.09371 23.094734-23.09371h83.014491l-33.296717-54.624227c-7.284937-11.952825-2.95493-27.243513 9.66342-34.145518 12.61835-6.90098 28.767053-2.796228 36.050966 9.155573l39.591558 64.953173c2.81773 4.616694 3.894856 9.726901 3.436156 14.659975h14.433697c14.502297-35.530833 24.953084-72.795102 30.912091-111.119091 2.07439-13.238824 13.521416-23.500192 26.342495-22.710778 12.798554 0.789415 22.011465 13.55418 19.699534 28.326783-5.62522 36.187143-14.913899 71.511151-27.542488 105.503086h74.664715c-0.188395-6.375728 2.127632-12.809816 6.994154-17.682482l67.87329-67.862027c9.370589-9.359326 24.559913-9.359326 33.93255 0 9.369565 9.381852 9.369565 24.559913 0 33.941764l-51.609912 51.601721h81.53805c12.753503 0 23.094734 10.328945 23.094734 23.093711 0 12.765789-10.341231 23.094734-23.094734 23.094734H502.647329a554.068846 554.068846 0 0 1-24.894723 46.188445h280.988664c12.752479 0 23.094734 10.329969 23.094735 23.094734s-10.342255 23.094734-23.094735 23.094734H667.808058l104.7792 74.491679c10.058639 7.15388 12.505723 21.227169 5.478805 31.421985z" p-id="8580" fill="#CDA472"></path></svg>