<?xml version="1.0" standalone="no"?><!DOCTYPE svg PUBLIC "-//W3C//DTD SVG 1.1//EN" "http://www.w3.org/Graphics/SVG/1.1/DTD/svg11.dtd"><svg t="1522689269040" class="icon" style="" viewBox="0 0 1024 1024" version="1.1" xmlns="http://www.w3.org/2000/svg" p-id="43370" xmlns:xlink="http://www.w3.org/1999/xlink" width="200" height="200"><defs><style type="text/css"></style></defs><path d="M942.1 157c-7.7-4.7-21.7-10.9-44 0.5-0.9 0.5-0.7 1-1.6 1.6l-78.7 53.4-431.7-108.8c-0.4-0.1-0.6-0.2-1-0.3-98.5-19.9-194.6 12.2-257.2 85.8-41.6 48.8-63.6 110.7-63.6 179 0 64.8 23.8 128.4 66.9 179 1.9 2.2 0.1 4.1 2 6.3-0.6 2.1-5.2 4.2-5.2 6.5v324c0 27.2 23.3 42.1 50.2 42.1h124.5c27.6 0 49.5-18.7 51-43.6L384 726c4.7 0.6 9.6 1.1 14.7 1.1 14.7 0 30.6-2.8 45-10.4 37.7-21.7 58.1-64.3 52.8-106.8L817 544.2l83.1 50.4c9.4 4.7 17.6 6.4 24.6 6.4 9.7 0 12.9-3.2 17.3-5.9 7.8-4.8 16.9-16.9 16.9-43.4V200.4c0.1-26.5-8.9-38.6-16.8-43.4zM305.4 875.3l-0.3 2.1c-0.6 0.2-5.3 0.3-6.2 0.3H177V594.8c49 28.5 94.9 43.8 147 43.8 7.7 0 17.5-0.5 25.3-1.2l-43.9 237.9z m114.7-201.4c-8.3 4.4-18.2 4.9-26.8 4.1l9.4-48.8 45.9-9.4c1.3 21.9-9.7 43.3-28.5 54.1zM788 498.6l-417 86.3c-79.9 16-153.2-9.2-204.6-69.5-35.6-41.7-54.2-94-54.2-147.2 0-56.5 18.5-107.4 52.4-147.2 41-48 100.1-74.3 163.6-74.3 15.3 0 27 1.5 42.7 4.6L788 257.2v241.4z m122 49.9l-72-44.6V253.4l72-49.4v344.5z" fill="#797979" p-id="43371"></path><path d="M166.2 363.5c0 75.7 61.3 137.2 136.5 137.2s136.5-61.6 136.5-137.2S378 226.3 302.7 226.3s-136.5 61.5-136.5 137.2z m224.1 0c0 48.7-39.3 88.3-87.6 88.3s-87.6-39.6-87.6-88.3 39.3-88.3 87.6-88.3 87.6 39.6 87.6 88.3z" fill="#797979" p-id="43372"></path></svg>