<?xml version="1.0" standalone="no"?><!DOCTYPE svg PUBLIC "-//W3C//DTD SVG 1.1//EN" "http://www.w3.org/Graphics/SVG/1.1/DTD/svg11.dtd"><svg t="1522691232359" class="icon" style="" viewBox="0 0 1024 1024" version="1.1" xmlns="http://www.w3.org/2000/svg" p-id="12841" xmlns:xlink="http://www.w3.org/1999/xlink" width="200" height="200"><defs><style type="text/css"></style></defs><path d="M651.323077 955.569231 349.169231 955.569231c-45.784615 0-82.953846-37.169231-82.953846-82.953846L266.215385 522.092308c0-128 104.123077-232.123077 232.123077-232.123077l4.061538 0c128 0 232.123077 104.123077 232.123077 232.123077L734.523077 872.615385C734.276923 918.4 697.107692 955.569231 651.323077 955.569231L651.323077 955.569231zM498.461538 357.907692c-96.123077 0-174.276923 78.276923-174.276923 174.276923l0 315.2c0 22.276923 17.969231 40.246154 40.246154 40.246154l271.630769 0c22.153846 0 40.246154-17.969231 40.246154-40.246154L676.307692 532.184615c0-96.123077-78.276923-174.276923-174.276923-174.276923L498.461538 357.907692 498.461538 357.907692zM498.215385 328.369231" p-id="12842" fill="#797979"></path><path d="M534.892308 328.984615l-69.169231 0c-24.738462 0-44.676923-20.061538-44.676923-44.676923l0-69.169231c0-24.738462 20.061538-44.676923 44.676923-44.676923l69.169231 0c24.738462 0 44.676923 20.061538 44.676923 44.676923L579.569231 284.307692C579.692308 308.923077 559.384615 328.984615 534.892308 328.984615L534.892308 328.984615zM465.476923 208.861538c-3.569231 0-6.4 2.953846-6.4 6.4l0 69.169231c0 3.569231 2.830769 6.4 6.4 6.4l69.169231 0c3.569231 0 6.4-2.830769 6.4-6.4l0-69.415385c0-3.569231-2.953846-6.4-6.4-6.4l-69.169231 0L465.476923 208.861538zM465.476923 208.861538" p-id="12843" fill="#797979"></path><path d="M499.076923 193.230769c-10.707692 0-18.953846-8.738462-18.953846-19.076923L480.123077 105.969231c0-10.707692 8.246154-19.076923 18.953846-19.076923 10.707692 0 18.953846 8.738462 18.953846 19.076923l0 68.061538C518.030769 184.738462 509.784615 193.230769 499.076923 193.230769L499.076923 193.230769zM499.076923 193.230769" p-id="12844" fill="#797979"></path><path d="M555.446154 597.292308l-110.769231 0c-7.138462 0-12.676923-5.169231-12.676923-12.184615 0-7.138462 5.784615-12.184615 12.676923-12.184615l110.769231 0c7.138462 0 12.676923 5.169231 12.676923 12.184615C568.123077 592.246154 562.584615 597.292308 555.446154 597.292308L555.446154 597.292308zM555.446154 597.292308" p-id="12845" fill="#797979"></path><path d="M640.615385 668.553846 359.384615 668.553846c-7.138462 0-12.676923-5.169231-12.676923-12.184615 0-7.138462 5.784615-12.184615 12.676923-12.184615l280.984615 0c7.138462 0 12.676923 5.169231 12.676923 12.184615C653.046154 663.384615 647.507692 668.553846 640.615385 668.553846L640.615385 668.553846zM640.615385 668.553846" p-id="12846" fill="#797979"></path><path d="M640.615385 744.246154 359.384615 744.246154c-7.138462 0-12.676923-6.276923-12.676923-13.292308 0-7.138462 5.784615-13.292308 12.676923-13.292308l280.984615 0c7.138462 0 12.676923 6.276923 12.676923 13.292308C653.046154 737.969231 647.507692 744.246154 640.615385 744.246154L640.615385 744.246154zM640.615385 744.246154" p-id="12847" fill="#797979"></path><path d="M356.676923 140.8c-3.569231 0-6.892308-0.861538-9.969231-2.953846-8.861538-5.538462-11.815385-17.353846-6.276923-26.461538 19.569231-31.384615 57.6-45.784615 84.553846-45.784615l134.646154 0c10.707692 0 19.076923 8.246154 19.076923 18.953846 0 10.707692-8.615385 18.953846-19.076923 18.953846L424.984615 103.507692c-16.738462 0-40.738462 9.969231-51.815385 28.061538C369.353846 137.353846 363.2 140.8 356.676923 140.8L356.676923 140.8zM356.676923 140.8" p-id="12848" fill="#797979"></path></svg>