<?xml version="1.0" standalone="no"?><!DOCTYPE svg PUBLIC "-//W3C//DTD SVG 1.1//EN" "http://www.w3.org/Graphics/SVG/1.1/DTD/svg11.dtd"><svg t="1522688164062" class="icon" style="" viewBox="0 0 1024 1024" version="1.1" xmlns="http://www.w3.org/2000/svg" p-id="2701" xmlns:xlink="http://www.w3.org/1999/xlink" width="200" height="200"><defs><style type="text/css"></style></defs><path d="M438.82666667 390.29333333c-68.05333333 0-123.30666667 55.36-123.30666667 123.30666667 0 68.05333333 55.36 123.30666667 123.30666667 123.30666667 68.05333333 0 123.30666667-55.36 123.30666666-123.30666667 0-67.94666667-55.25333333-123.30666667-123.30666666-123.30666667z m0 207.04c-46.18666667 0-83.73333333-37.54666667-83.73333334-83.73333333 0-39.36 27.30666667-72.42666667 63.89333334-81.38666667v86.82666667H458.66666667v-86.82666667c36.69333333 8.96 64 42.02666667 64 81.38666667-0.10666667 46.18666667-37.65333333 83.73333333-83.84 83.73333333zM421.86666667 170.45333333h39.57333333V238.93333333h-39.57333333zM487.68 170.45333333h39.57333333V238.93333333h-39.57333333zM553.49333333 170.45333333H593.06666667V238.93333333h-39.57333334z" fill="#797979" p-id="2702"></path><path d="M886.72 195.41333333l-42.24-3.41333333v-0.85333333c0.21333333-5.44-1.70666667-10.66666667-5.44-14.61333334-3.73333333-3.94666667-8.85333333-6.08-14.29333333-6.08h-88.85333334c-5.44 0-10.56 2.24-14.29333333 6.08-3.73333333 3.94666667-5.76 9.17333333-5.44 14.61333334l13.65333333 298.77333333c0.53333333 10.56 9.17333333 18.88 19.73333334 18.88h10.77333333v184.64c0 62.18666667-43.30666667 114.45333333-101.44 128.10666667-9.70666667-29.01333333-37.22666667-50.02666667-69.44-50.02666667-11.62666667 0-22.72 2.77333333-32.53333333 7.57333333-14.72-5.97333333-25.17333333-20.48-25.17333334-37.33333333v-9.17333333h126.50666667c10.77333333 0 19.52-8.85333333 19.52-19.84v-622.93333334c0-10.88-8.74666667-19.84-19.52-19.84H219.41333333c-10.77333333 0-19.52 8.85333333-19.52 19.84v622.93333334c0 10.88 8.74666667 19.84 19.52 19.84h131.94666667v9.17333333c0 16.85333333-10.45333333 31.36-25.17333333 37.33333333-9.81333333-4.90666667-20.8-7.57333333-32.53333334-7.57333333-40.42666667 0-73.28 32.85333333-73.28 73.28 0 40.42666667 32.85333333 73.28 73.28 73.28S366.93333333 885.22666667 366.93333333 844.8c0-13.65333333-3.73333333-26.56-10.34666666-37.54666667 20.69333333-14.4 34.24-38.4 34.24-65.49333333v-9.17333333h101.22666666v9.17333333c0 27.09333333 13.54666667 51.09333333 34.24 65.49333333-6.61333333 10.98666667-10.34666667 23.78666667-10.34666666 37.54666667 0 40.42666667 32.85333333 73.28 73.28 73.28 34.66666667 0 63.68-24.21333333 71.36-56.53333333 79.14666667-15.04 139.09333333-84.69333333 139.09333333-168.10666667V508.8h11.2c10.56 0 19.30666667-8.32 19.73333333-18.88l5.76-125.12 36.37333334 2.88c0.53333333 0 1.06666667 0.10666667 1.6 0.10666667 4.69333333 0 9.28-1.70666667 12.8-4.69333334 3.94666667-3.41333333 6.50666667-8.21333333 6.93333333-13.44l10.66666667-132.90666666c1.06666667-10.98666667-7.04-20.48-18.02666667-21.33333334zM293.76 878.50666667c-18.56 0-33.70666667-15.14666667-33.70666667-33.70666667s15.14666667-33.70666667 33.70666667-33.70666667S327.46666667 826.24 327.46666667 844.8s-15.04 33.70666667-33.70666667 33.70666667z m-54.72-768.74666667h399.68v583.36H239.04V109.76z m350.4 768.74666667c-18.56 0-33.70666667-15.14666667-33.70666667-33.70666667s15.14666667-33.70666667 33.70666667-33.70666667 33.70666667 15.14666667 33.70666667 33.70666667-15.14666667 33.70666667-33.70666667 33.70666667z m202.77333333-409.28h-23.68l-11.84-259.2h47.46666667l-11.94666667 259.2z m64.10666667-142.50666667L838.4 325.33333333l4.26666667-93.76 21.22666666 1.70666667-7.57333333 93.44z" fill="#797979" p-id="2703"></path></svg>